<svg width="160" height="48" viewBox="0 0 160 48" fill="none" xmlns="http://www.w3.org/2000/svg">
<rect x="80" width="80" height="48" fill="white"/>
<path d="M106.5 24.1999C106.5 23.7892 106.658 23.3954 106.939 23.105C107.221 22.8146 107.602 22.6515 108 22.6515L128.385 22.6515L126.435 20.6541C126.153 20.3625 125.994 19.9671 125.994 19.5547C125.994 19.1424 126.153 18.7469 126.435 18.4554C126.717 18.1638 127.101 18 127.5 18C127.899 18 128.283 18.1638 128.565 18.4554L133.065 23.1005C133.273 23.3183 133.414 23.5948 133.47 23.8951C133.526 24.1955 133.495 24.5063 133.38 24.7883C133.268 25.071 133.076 25.3131 132.831 25.4839C132.585 25.6548 132.296 25.7467 132 25.7483L108 25.7483C107.602 25.7483 107.221 25.5851 106.939 25.2948C106.658 25.0044 106.5 24.6105 106.5 24.1999Z" fill="#393D46"/>
<path d="M126 28.845C125.999 28.6412 126.037 28.4392 126.111 28.2506C126.186 28.0619 126.296 27.8903 126.435 27.7457L130.935 23.1005C131.217 22.8089 131.601 22.6451 132 22.6451C132.198 22.6451 132.394 22.6854 132.576 22.7635C132.759 22.8416 132.925 22.9561 133.065 23.1005C133.205 23.2449 133.316 23.4163 133.391 23.6049C133.467 23.7935 133.506 23.9957 133.506 24.1999C133.506 24.6122 133.347 25.0077 133.065 25.2992L128.565 29.9444C128.426 30.0895 128.26 30.2047 128.077 30.2833C127.894 30.3619 127.698 30.4024 127.5 30.4024C127.302 30.4024 127.106 30.3619 126.923 30.2833C126.74 30.2047 126.574 30.0895 126.435 29.9444C126.296 29.7997 126.186 29.6281 126.111 29.4395C126.037 29.2508 125.999 29.0488 126 28.845Z" fill="#393D46"/>
<rect width="80" height="48" fill="white"/>
<path d="M53.5 24.1999C53.5 23.7892 53.3419 23.3954 53.0606 23.105C52.7793 22.8146 52.3978 22.6515 52 22.6515L31.615 22.6515L33.565 20.6541C33.8474 20.3625 34.0061 19.9671 34.0061 19.5547C34.0061 19.1424 33.8474 18.7469 33.565 18.4554C33.2825 18.1638 32.8994 18 32.5 18C32.1005 18 31.7174 18.1638 31.435 18.4554L26.935 23.1005C26.7268 23.3183 26.5858 23.5948 26.5298 23.8951C26.4737 24.1955 26.5051 24.5063 26.62 24.7883C26.7325 25.071 26.9236 25.3131 27.1692 25.4839C27.4148 25.6548 27.7038 25.7467 28 25.7483L52 25.7483C52.3978 25.7483 52.7793 25.5851 53.0606 25.2948C53.3419 25.0044 53.5 24.6105 53.5 24.1999Z" fill="#CDCFD1"/>
<path d="M34 28.845C34.0012 28.6412 33.9633 28.4392 33.8887 28.2506C33.814 28.0619 33.7041 27.8903 33.565 27.7457L29.065 23.1005C28.7826 22.8089 28.3995 22.6451 28 22.6451C27.8022 22.6451 27.6064 22.6854 27.4237 22.7635C27.2409 22.8416 27.0749 22.9561 26.935 23.1005C26.7952 23.2449 26.6842 23.4163 26.6085 23.6049C26.5329 23.7935 26.4939 23.9957 26.4939 24.1999C26.4939 24.6122 26.6526 25.0076 26.935 25.2992L31.435 29.9444C31.5745 30.0895 31.7404 30.2047 31.9232 30.2833C32.106 30.3619 32.302 30.4024 32.5 30.4024C32.6981 30.4024 32.8941 30.3619 33.0769 30.2833C33.2597 30.2047 33.4256 30.0895 33.565 29.9444C33.7041 29.7997 33.814 29.6281 33.8887 29.4395C33.9633 29.2508 34.0012 29.0488 34 28.845Z" fill="#CDCFD1"/>
</svg>
