<svg width="32" height="37" viewBox="0 0 32 37" fill="none" xmlns="http://www.w3.org/2000/svg">
<path d="M30.1221 10.2666C29.8317 9.94105 29.509 9.64588 29.1588 9.38569C29.3026 8.25904 29.2032 7.11467 28.8673 6.02968C28.5315 4.9447 27.9669 3.9443 27.2118 3.09592C25.3888 1.04128 22.2813 0 17.975 0H7.5244C6.7694 0.002012 6.03971 0.272368 5.46567 0.762774C4.89162 1.25318 4.51062 1.93169 4.39071 2.67711L0.0350644 30.2694C-0.0265584 30.6392 -0.0067841 31.0181 0.093009 31.3795C0.192802 31.7409 0.370213 32.0762 0.612876 32.362C0.855539 32.6478 1.15761 32.8773 1.49805 33.0344C1.83848 33.1915 2.20909 33.2725 2.58402 33.2717H7.06453L6.92662 34.1471C6.87085 34.4992 6.89207 34.8592 6.98881 35.2024C7.08555 35.5455 7.25552 35.8636 7.48701 36.1348C7.7185 36.4059 8.00601 36.6237 8.32974 36.773C8.65347 36.9224 9.00572 36.9998 9.36224 36.9999H14.8019C15.5065 37.0055 16.1901 36.7598 16.7298 36.3067C17.2696 35.8537 17.6301 35.2231 17.7467 34.5281L18.8241 27.7483L18.8422 27.6563H19.3448C26.1262 27.6563 30.362 24.3042 31.5971 17.9645C31.9739 16.6558 32.0367 15.2767 31.7804 13.9392C31.5241 12.6016 30.956 11.3434 30.1221 10.2666V10.2666ZM8.94015 21.3659L7.73853 28.9934L7.59337 29.908H3.49725L7.687 3.36363H17.975C21.2302 3.36363 23.5542 4.04359 24.6891 5.32136C25.2248 5.94421 25.5984 6.6897 25.7767 7.49164C25.9551 8.29358 25.9327 9.12714 25.7115 9.91833L25.6802 10.1071C25.6597 10.2357 25.6412 10.3614 25.6072 10.5212C25.2828 12.9244 24.0818 15.1229 22.2349 16.6943C20.1616 18.1363 17.6627 18.8372 15.1418 18.6839H12.0755C11.3183 18.6814 10.5853 18.9507 10.01 19.4429C9.43456 19.9351 9.05495 20.6175 8.94015 21.3659V21.3659ZM28.2958 17.3207C27.3695 22.0771 24.5249 24.2927 19.3447 24.2927H18.5317C17.8264 24.2872 17.1422 24.5337 16.6023 24.9877C16.0625 25.4417 15.7024 26.0735 15.5869 26.7694L14.4947 33.6215L10.4117 33.6363L11.2159 28.5339L12.2437 22.0541H15.1353C15.399 22.0541 15.6321 22.0145 15.8889 22.0054C16.4924 21.9846 17.0941 21.9614 17.6593 21.8913C18.0045 21.8483 18.3213 21.7699 18.6522 21.7085C19.1105 21.6238 19.5691 21.54 19.9994 21.4204C20.3196 21.3313 20.6183 21.2166 20.9229 21.1083C21.3253 20.9655 21.7214 20.8156 22.096 20.6396C22.3786 20.5066 22.6478 20.3586 22.9144 20.2069C23.2692 20.0059 23.613 19.786 23.9443 19.5481C24.1835 19.3756 24.4184 19.1985 24.6422 19.0083C24.9595 18.7347 25.261 18.4433 25.5452 18.1355C25.7353 17.9328 25.9299 17.736 26.1058 17.5179C26.3977 17.1459 26.6673 16.757 26.9131 16.353C27.0417 16.1475 27.1843 15.9574 27.3026 15.7411C27.6433 15.1177 27.9361 14.4693 28.1784 13.8015C28.193 13.7614 28.2138 13.7275 28.2281 13.6872C28.2348 13.6683 28.2447 13.6526 28.2514 13.6336C28.5847 14.8381 28.6 16.1085 28.2958 17.3207V17.3207Z" fill="#393D46"/>
</svg>
