<svg width="60" height="60" viewBox="0 0 60 60" fill="none" xmlns="http://www.w3.org/2000/svg">
<rect width="60" height="60" fill="white"/>
<path d="M20.9999 29.5002C20.9999 29.235 21.1052 28.9806 21.2928 28.7931C21.4803 28.6055 21.7346 28.5002 21.9999 28.5002L35.5899 28.5002L34.2899 27.2102C34.1016 27.0219 33.9958 26.7665 33.9958 26.5002C33.9958 26.2339 34.1016 25.9785 34.2899 25.7902C34.4782 25.6019 34.7336 25.4961 34.9999 25.4961C35.2662 25.4961 35.5216 25.6019 35.7099 25.7902L38.7099 28.7902C38.8486 28.9308 38.9426 29.1094 38.98 29.3034C39.0174 29.4974 38.9964 29.6981 38.9199 29.8802C38.8448 30.0628 38.7174 30.2191 38.5537 30.3295C38.39 30.4398 38.1973 30.4992 37.9999 30.5002L21.9999 30.5002C21.7346 30.5002 21.4803 30.3948 21.2928 30.2073C21.1052 30.0198 20.9999 29.7654 20.9999 29.5002Z" fill="#393D46"/>
<path d="M33.9998 32.5002C33.9991 32.3686 34.0243 32.2381 34.074 32.1163C34.1238 31.9944 34.1971 31.8836 34.2898 31.7902L37.2898 28.7902C37.4781 28.6019 37.7335 28.4961 37.9998 28.4961C38.1317 28.4961 38.2622 28.5221 38.3841 28.5725C38.5059 28.623 38.6166 28.6969 38.7098 28.7902C38.8031 28.8834 38.877 28.9941 38.9275 29.1159C38.9779 29.2378 39.0039 29.3683 39.0039 29.5002C39.0039 29.7665 38.8981 30.0219 38.7098 30.2102L35.7098 33.2102C35.6169 33.3039 35.5063 33.3783 35.3844 33.4291C35.2625 33.4798 35.1318 33.506 34.9998 33.506C34.8678 33.506 34.7371 33.4798 34.6152 33.4291C34.4934 33.3783 34.3828 33.3039 34.2898 33.2102C34.1971 33.1167 34.1238 33.0059 34.074 32.8841C34.0243 32.7623 33.9991 32.6318 33.9998 32.5002Z" fill="#393D46"/>
</svg>
