<svg width="48" height="48" viewBox="0 0 48 48" fill="none" xmlns="http://www.w3.org/2000/svg">
<path d="M10.4015 1.93594C10.1062 3.25781 9.81559 4.57969 9.52027 5.90156C9.04215 8.0625 8.56402 10.2188 8.0859 12.3797C7.96871 12.9141 7.84683 13.4484 7.72965 13.9828C7.39683 15.4969 7.23277 17.0625 7.32184 18.6141C7.55152 22.5328 9.12184 26.2641 11.7937 29.1516C13.1015 30.5625 14.6953 31.7672 16.4156 32.6297C18.389 33.6188 20.4796 34.2 22.6734 34.3969C26.6578 34.7531 30.825 33.5484 33.9984 31.1156C35.625 29.8688 37.0125 28.4109 38.114 26.6766C39.1125 25.1109 39.8578 23.3344 40.2656 21.525C40.6828 19.6781 40.814 17.7516 40.5796 15.8672C40.4718 15.0281 40.3171 14.2078 40.1343 13.3875C39.7031 11.4422 39.2718 9.49688 38.8406 7.55156C38.4468 5.775 38.0531 4.00313 37.6593 2.22656C37.6359 2.12813 37.6171 2.02969 37.5937 1.93125C37.5046 1.5375 37.2281 1.19531 36.9234 0.95625C36.5953 0.703125 36.2109 0.553125 35.789 0.553125C35.0062 0.553125 34.2234 0.553125 33.4406 0.553125C31.5609 0.553125 29.6812 0.553125 27.8015 0.553125C25.5375 0.553125 23.2734 0.553125 21.0046 0.553125C19.0406 0.553125 17.0765 0.553125 15.1078 0.553125C14.1562 0.553125 13.2 0.539062 12.2437 0.553125C12.2296 0.553125 12.2156 0.553125 12.2062 0.553125C11.2265 0.553125 10.2843 1.41562 10.3312 2.42813C10.3781 3.44531 11.1562 4.30313 12.2062 4.30313C12.989 4.30313 13.7718 4.30313 14.5546 4.30313C16.4343 4.30313 18.314 4.30313 20.1937 4.30313C22.4578 4.30313 24.7218 4.30313 26.9906 4.30313C28.9546 4.30313 30.9187 4.30313 32.8875 4.30313C33.839 4.30313 34.7953 4.32188 35.7515 4.30313C35.7656 4.30313 35.7796 4.30313 35.789 4.30313C35.1843 3.84375 34.5843 3.38438 33.9796 2.925C34.3031 4.39219 34.6312 5.85937 34.9546 7.33125C35.4468 9.53906 35.9343 11.7516 36.4265 13.9594C36.6 14.7328 36.7828 15.5063 36.8859 16.2938C36.8625 16.1297 36.839 15.9609 36.8203 15.7969C36.9937 17.1094 36.989 18.4313 36.8156 19.7438C36.839 19.5797 36.8625 19.4109 36.8812 19.2469C36.7031 20.5359 36.3609 21.7969 35.8593 22.9969C35.9203 22.8469 35.9859 22.6969 36.0468 22.5469C35.55 23.7234 34.9031 24.8344 34.125 25.8516C34.2234 25.725 34.3218 25.5984 34.4203 25.4719C33.6375 26.4844 32.7328 27.3891 31.725 28.1672C31.8515 28.0688 31.9781 27.9703 32.1046 27.8719C31.0968 28.6453 30 29.2828 28.8375 29.7797C28.9875 29.7188 29.1375 29.6531 29.2875 29.5922C28.0734 30.1031 26.7984 30.4547 25.4906 30.6328C25.6546 30.6094 25.8234 30.5859 25.9875 30.5672C24.6656 30.7406 23.3296 30.7406 22.0125 30.5672C22.1765 30.5906 22.3453 30.6141 22.5093 30.6328C21.2015 30.4547 19.9265 30.1031 18.7125 29.5922C18.8625 29.6531 19.0125 29.7188 19.1625 29.7797C17.9953 29.2828 16.8984 28.6406 15.8953 27.8719C16.0218 27.9703 16.1484 28.0688 16.275 28.1672C15.2671 27.3844 14.3578 26.4797 13.5796 25.4719C13.6781 25.5984 13.7765 25.725 13.875 25.8516C13.0968 24.8344 12.4546 23.7281 11.9531 22.5469C12.014 22.6969 12.0796 22.8469 12.1406 22.9969C11.639 21.7969 11.2968 20.5359 11.1187 19.2469C11.1421 19.4109 11.1656 19.5797 11.1843 19.7438C11.0109 18.4313 11.0062 17.1094 11.1796 15.7969C11.1562 15.9609 11.1328 16.1297 11.114 16.2938C11.2078 15.5953 11.3671 14.9063 11.5171 14.2172C11.7234 13.2797 11.9296 12.3469 12.1406 11.4094C12.6468 9.12188 13.1578 6.82969 13.664 4.54219C13.7859 4.00313 13.9031 3.46406 14.025 2.925C14.1328 2.43281 14.0953 1.92188 13.8375 1.48125C13.6078 1.09219 13.1625 0.721875 12.7171 0.61875C12.239 0.510937 11.7 0.534375 11.2734 0.80625C10.8656 1.07344 10.5093 1.45781 10.4015 1.93594Z" fill="#393D46"/>
<path d="M22.125 32.6018C22.125 34.0643 22.125 35.5268 22.125 36.9846C22.125 39.3143 22.125 41.6393 22.125 43.9689C22.125 44.5033 22.125 45.033 22.125 45.5674C22.125 46.5471 22.9875 47.4893 24 47.4424C25.0172 47.3955 25.875 46.6174 25.875 45.5674C25.875 44.1049 25.875 42.6424 25.875 41.1846C25.875 38.8549 25.875 36.5299 25.875 34.2002C25.875 33.6658 25.875 33.1361 25.875 32.6018C25.875 31.6221 25.0125 30.6799 24 30.7268C22.9828 30.7737 22.125 31.5518 22.125 32.6018Z" fill="#393D46"/>
<path d="M15.2578 47.442C15.839 47.442 16.4203 47.442 17.0015 47.442C18.389 47.442 19.7765 47.442 21.164 47.442C22.8515 47.442 24.539 47.442 26.2218 47.442C27.675 47.442 29.1281 47.442 30.5765 47.442C31.2843 47.442 31.9968 47.456 32.7046 47.442C32.714 47.442 32.7234 47.442 32.7328 47.442C33.7124 47.442 34.6546 46.5795 34.6078 45.567C34.5609 44.5498 33.7828 43.692 32.7328 43.692C32.1515 43.692 31.5703 43.692 30.989 43.692C29.6015 43.692 28.214 43.692 26.8265 43.692C25.139 43.692 23.4515 43.692 21.7687 43.692C20.3156 43.692 18.8625 43.692 17.414 43.692C16.7062 43.692 15.9937 43.6779 15.2859 43.692C15.2765 43.692 15.2672 43.692 15.2578 43.692C14.2781 43.692 13.3359 44.5545 13.3828 45.567C13.4297 46.5842 14.2078 47.442 15.2578 47.442ZM26.8968 19.2279C26.5453 18.2295 26.1937 17.2264 25.8421 16.2279C25.2843 14.6342 24.7265 13.0404 24.164 11.4467C24.0375 11.081 23.9062 10.7201 23.7796 10.3545C23.0109 11.1232 22.2421 11.892 21.4734 12.6607C22.6546 12.8295 23.8312 12.9935 25.0125 13.1623C25.1812 13.1857 25.35 13.2092 25.5187 13.2326C25.8515 13.3217 26.1843 13.3217 26.5171 13.2326C26.8359 13.1435 27.1125 12.9842 27.3468 12.7498C27.8437 12.2529 27.9656 11.592 27.8296 10.9264C27.6187 9.91854 27.4125 8.90604 27.2015 7.89823C26.864 6.28104 26.5312 4.66386 26.1937 3.04667C26.1187 2.67636 26.039 2.30604 25.964 1.94042C25.8703 1.49511 25.4859 1.04511 25.1015 0.820106C24.6984 0.585731 24.1078 0.487294 23.6578 0.632606C23.2031 0.777919 22.7671 1.05917 22.5375 1.49511C22.2937 1.95917 22.2421 2.42323 22.35 2.93886C22.5609 3.94667 22.7671 4.95917 22.9781 5.96698C23.3156 7.58417 23.6484 9.20136 23.9859 10.8185C24.0609 11.1889 24.1406 11.5592 24.2156 11.9248C24.9843 11.156 25.7531 10.3873 26.5218 9.61854C25.3406 9.44979 24.164 9.28573 22.9828 9.11698C22.814 9.09354 22.6453 9.07011 22.4765 9.04667C22.1437 8.95761 21.8109 8.95761 21.4781 9.04667C21.1593 9.13573 20.8828 9.29511 20.6484 9.52948C20.1984 9.97948 19.95 10.7342 20.1656 11.3529C20.5172 12.3514 20.8687 13.3545 21.2203 14.3529C21.7781 15.9467 22.3359 17.5404 22.8984 19.1342C23.025 19.4998 23.1562 19.8607 23.2828 20.2264C23.4468 20.6904 23.7093 21.0935 24.1453 21.3467C24.5484 21.581 25.139 21.6795 25.589 21.5342C26.0437 21.3889 26.4796 21.1076 26.7093 20.6717C26.9343 20.2451 27.0656 19.7014 26.8968 19.2279Z" fill="#393D46"/>
</svg>
