<svg width="56" height="56" viewBox="0 0 56 56" fill="none" xmlns="http://www.w3.org/2000/svg">
<path d="M43.7198 17.1383C43.5308 16.6659 43.241 16.2403 42.8706 15.8913C42.5003 15.5424 42.0583 15.2783 41.5755 15.1176L36.0618 13.279L34.5895 10.3343C34.3002 9.75169 33.8535 9.26171 33.3001 8.91985C32.7467 8.57799 32.1086 8.3979 31.4582 8.39998H25.0088C24.3583 8.3979 23.7203 8.57799 23.1668 8.91985C22.6134 9.26171 22.1668 9.75169 21.8775 10.3343L20.4052 13.279L14.8915 15.1176C14.4087 15.2783 13.9667 15.5424 13.5963 15.8913C13.226 16.2403 12.9362 16.6659 12.7472 17.1383L8.81782 26.964C8.54062 27.653 8.39881 28.389 8.40016 29.1316V43.4C8.40016 44.0188 8.64599 44.6123 9.08357 45.0499C9.52116 45.4875 10.1147 45.7333 10.7335 45.7333H13.0668C13.6857 45.7333 14.2792 45.4875 14.7167 45.0499C15.1543 44.6123 15.4002 44.0188 15.4002 43.4V40.0726L16.5668 36.1806V38.7986C16.6356 40.1141 17.037 41.3906 17.7335 42.5086V45.7333C17.7335 46.3521 17.9793 46.9456 18.4169 47.3832C18.8545 47.8208 19.448 48.0666 20.0668 48.0666H36.4002C37.019 48.0666 37.6125 47.8208 38.0501 47.3832C38.4877 46.9456 38.7335 46.3521 38.7335 45.7333V42.5086C39.43 41.3906 39.8314 40.1141 39.9002 38.7986V36.1806L41.0668 40.0726V43.4C41.0668 44.0188 41.3127 44.6123 41.7502 45.0499C42.1878 45.4875 42.7813 45.7333 43.4002 45.7333H45.7335C46.3523 45.7333 46.9458 45.4875 47.3834 45.0499C47.821 44.6123 48.0668 44.0188 48.0668 43.4V29.1316C48.0684 28.3897 47.9266 27.6544 47.6492 26.9663L43.7198 17.1383ZM41.0412 17.4533C39.7967 19.3246 38.6571 21.2634 37.6275 23.261C37.5038 23.7276 37.6088 23.1863 37.5668 36.4C36.6386 36.4 35.7483 36.0312 35.0919 35.3748C34.4356 34.7185 34.0668 33.8282 34.0668 32.9C34.0668 32.5905 33.9439 32.2938 33.7251 32.075C33.5063 31.8562 33.2096 31.7333 32.9002 31.7333C32.5907 31.7333 32.294 31.8562 32.0752 32.075C31.8564 32.2938 31.7335 32.5905 31.7335 32.9C31.7335 34.4471 32.3481 35.9308 33.442 37.0248C34.536 38.1187 36.0197 38.7333 37.5668 38.7333V38.7986C37.5183 39.6027 37.2706 40.3821 36.8458 41.0666H29.4002V19.5253L35.4062 15.5213C42.0702 17.787 40.5768 17.1826 41.0412 17.4533ZM23.3335 12.6606L24.7778 15.1876L22.7478 13.8343L23.3335 12.6606ZM33.1522 12.6606L33.7378 13.8273L31.7078 15.1806L33.1522 12.6606ZM31.5515 10.7566L28.2335 16.548L24.9248 10.7566C25.3985 10.7333 31.0662 10.7333 31.5422 10.7566H31.5515ZM21.0608 15.5213L27.0668 19.5253V41.0666H19.6212C19.1928 40.3838 18.9448 39.6034 18.9002 38.7986V38.7333C20.4473 38.7333 21.931 38.1187 23.0249 37.0248C24.1189 35.9308 24.7335 34.4471 24.7335 32.9C24.7335 32.5905 24.6106 32.2938 24.3918 32.075C24.173 31.8562 23.8762 31.7333 23.5668 31.7333C23.2574 31.7333 22.9607 31.8562 22.7419 32.075C22.5231 32.2938 22.4002 32.5905 22.4002 32.9C22.4002 33.8282 22.0314 34.7185 21.375 35.3748C20.7187 36.0312 19.8284 36.4 18.9002 36.4C18.8582 23.1886 18.9632 23.716 18.8395 23.261C17.8106 21.263 16.6709 19.3241 15.4258 17.4533C15.7828 17.2433 18.6808 16.3333 21.0608 15.5213ZM10.7335 43.4V41.0666H13.0668V43.4H10.7335ZM16.4198 28.5553L13.3655 38.7333H10.7335V29.1316C10.7333 28.6865 10.818 28.2454 10.9832 27.832L14.1635 19.8846L16.5668 23.8886V27.5496C16.567 27.8902 16.5175 28.229 16.4198 28.5553V28.5553ZM20.0668 45.7333V43.4H36.4002V45.7333H20.0668ZM39.9002 27.5496V23.8886L42.3035 19.8846L45.4838 27.8343C45.6494 28.2468 45.7342 28.6872 45.7335 29.1316V38.7333H43.1015L40.0472 28.553C39.9493 28.2275 39.8998 27.8895 39.9002 27.5496V27.5496ZM43.4002 43.4V41.0666H45.7335V43.4H43.4002Z" fill="#393D46"/>
</svg>
