<svg width="48" height="48" viewBox="0 0 48 48" fill="none" xmlns="http://www.w3.org/2000/svg">
<rect width="48" height="48" fill="#393D46"/>
<path d="M32.71 31.29L29.31 27.9C30.407 26.5025 31.0022 24.7767 31 23C31 21.4178 30.5308 19.871 29.6518 18.5554C28.7727 17.2398 27.5233 16.2145 26.0615 15.609C24.5997 15.0035 22.9911 14.845 21.4393 15.1537C19.8874 15.4624 18.462 16.2243 17.3431 17.3431C16.2243 18.462 15.4624 19.8874 15.1537 21.4393C14.845 22.9911 15.0035 24.5997 15.609 26.0615C16.2145 27.5233 17.2398 28.7727 18.5554 29.6518C19.871 30.5308 21.4178 31 23 31C24.7767 31.0022 26.5025 30.407 27.9 29.31L31.29 32.71C31.383 32.8037 31.4936 32.8781 31.6154 32.9289C31.7373 32.9797 31.868 33.0058 32 33.0058C32.132 33.0058 32.2627 32.9797 32.3846 32.9289C32.5064 32.8781 32.617 32.8037 32.71 32.71C32.8037 32.617 32.8781 32.5064 32.9289 32.3846C32.9797 32.2627 33.0058 32.132 33.0058 32C33.0058 31.868 32.9797 31.7373 32.9289 31.6154C32.8781 31.4936 32.8037 31.383 32.71 31.29V31.29ZM17 23C17 21.8133 17.3519 20.6533 18.0112 19.6666C18.6705 18.6799 19.6075 17.9109 20.7039 17.4567C21.8003 17.0026 23.0067 16.8838 24.1705 17.1153C25.3344 17.3468 26.4035 17.9182 27.2426 18.7574C28.0818 19.5965 28.6532 20.6656 28.8847 21.8295C29.1162 22.9933 28.9974 24.1997 28.5433 25.2961C28.0892 26.3925 27.3201 27.3295 26.3334 27.9888C25.3467 28.6481 24.1867 29 23 29C21.4087 29 19.8826 28.3679 18.7574 27.2426C17.6321 26.1174 17 24.5913 17 23Z" fill="white"/>
</svg>
