<svg width="970" height="69" viewBox="0 0 970 69" fill="none" xmlns="http://www.w3.org/2000/svg">
<path d="M27.221 28.2458C29.8257 28.8009 31.918 30.1033 33.4979 32.1528C35.0778 34.1597 35.8677 36.4655 35.8677 39.0702C35.8677 42.8278 34.544 45.8167 31.8966 48.0371C29.292 50.2148 25.6411 51.3036 20.9442 51.3036H0V6.3409H20.2396C24.8085 6.3409 28.3739 7.38704 30.9359 9.47932C33.5406 11.5716 34.8429 14.4111 34.8429 17.9979C34.8429 20.6453 34.1384 22.8443 32.7293 24.595C31.3629 26.3457 29.5268 27.5626 27.221 28.2458ZM10.9525 24.531H18.126C19.9194 24.531 21.2858 24.1467 22.2252 23.3781C23.2073 22.5668 23.6983 21.3925 23.6983 19.8553C23.6983 18.3182 23.2073 17.1439 22.2252 16.3326C21.2858 15.5213 19.9194 15.1157 18.126 15.1157H10.9525V24.531ZM19.0227 42.4648C20.8588 42.4648 22.2679 42.0592 23.25 41.2479C24.2748 40.3939 24.7872 39.1769 24.7872 37.5971C24.7872 36.0172 24.2534 34.7789 23.1859 33.8822C22.1611 32.9855 20.7307 32.5371 18.8946 32.5371H10.9525V42.4648H19.0227Z" fill="#9F9F9F"/>
<path d="M40.0424 33.3698C40.0424 29.6976 40.7256 26.4738 42.092 23.6983C43.5011 20.9228 45.4012 18.7879 47.7924 17.2934C50.1836 15.7989 52.8523 15.0516 55.7986 15.0516C58.3179 15.0516 60.5169 15.564 62.3957 16.5888C64.3172 17.6136 65.7903 18.9587 66.8151 20.6239V15.564H77.7676V51.3036H66.8151V46.2437C65.7476 47.909 64.2531 49.2541 62.3317 50.2789C60.4529 51.3036 58.2538 51.816 55.7346 51.816C52.831 51.816 50.1836 51.0688 47.7924 49.5743C45.4012 48.0371 43.5011 45.8808 42.092 43.1053C40.7256 40.2871 40.0424 37.042 40.0424 33.3698ZM66.8151 33.4338C66.8151 30.7011 66.0465 28.5447 64.5093 26.9648C63.0149 25.385 61.1788 24.595 59.0011 24.595C56.8234 24.595 54.966 25.385 53.4288 26.9648C51.9343 28.502 51.1871 30.637 51.1871 33.3698C51.1871 36.1026 51.9343 38.2802 53.4288 39.9028C54.966 41.4827 56.8234 42.2727 59.0011 42.2727C61.1788 42.2727 63.0149 41.4827 64.5093 39.9028C66.0465 38.3229 66.8151 36.1666 66.8151 33.4338Z" fill="#9F9F9F"/>
<path d="M91.1354 11.8492C89.2139 11.8492 87.634 11.2941 86.3958 10.1839C85.2002 9.03098 84.6024 7.62189 84.6024 5.95661C84.6024 4.24862 85.2002 2.83953 86.3958 1.72934C87.634 0.576446 89.2139 0 91.1354 0C93.0142 0 94.5514 0.576446 95.747 1.72934C96.9853 2.83953 97.6044 4.24862 97.6044 5.95661C97.6044 7.62189 96.9853 9.03098 95.747 10.1839C94.5514 11.2941 93.0142 11.8492 91.1354 11.8492ZM96.6437 55.9152C96.6437 60.3133 95.5335 63.473 93.3131 65.3945C91.0927 67.3587 87.997 68.3408 84.0259 68.3408H79.7346V59.0536H82.3606C83.5562 59.0536 84.4102 58.8188 84.9226 58.3491C85.435 57.8794 85.6912 57.1108 85.6912 56.0433V15.564H96.6437V55.9152Z" fill="#9F9F9F"/>
<path d="M139.81 15.564V51.3036H128.857V46.4359C127.747 48.0158 126.231 49.2968 124.31 50.2789C122.431 51.2182 120.338 51.6879 118.033 51.6879C115.3 51.6879 112.887 51.0901 110.795 49.8946C108.703 48.6563 107.08 46.8842 105.927 44.5784C104.774 42.2727 104.198 39.5612 104.198 36.4442V15.564H115.086V34.971C115.086 37.3622 115.706 39.2196 116.944 40.5433C118.182 41.867 119.847 42.5289 121.94 42.5289C124.075 42.5289 125.761 41.867 127 40.5433C128.238 39.2196 128.857 37.3622 128.857 34.971V15.564H139.81Z" fill="#9F9F9F"/>
<path d="M182.968 15.564V51.3036H172.015V46.4359C170.905 48.0158 169.389 49.2968 167.468 50.2789C165.589 51.2182 163.497 51.6879 161.191 51.6879C158.458 51.6879 156.046 51.0901 153.953 49.8946C151.861 48.6563 150.239 46.8842 149.086 44.5784C147.933 42.2727 147.356 39.5612 147.356 36.4442V15.564H158.245V34.971C158.245 37.3622 158.864 39.2196 160.102 40.5433C161.341 41.867 163.006 42.5289 165.098 42.5289C167.233 42.5289 168.92 41.867 170.158 40.5433C171.396 39.2196 172.015 37.3622 172.015 34.971V15.564H182.968Z" fill="#9F9F9F"/>
<path d="M302.612 47.901C303.253 48.8831 303.915 49.6731 304.598 50.2708C305.281 50.8686 306.157 51.381 307.224 51.808V53.089C304.235 52.9609 300.905 52.8969 297.232 52.8969C294.414 52.8969 291.703 52.9609 289.098 53.089V51.808C290.294 51.7226 291.148 51.5945 291.66 51.4237C292.215 51.2529 292.493 50.954 292.493 50.527C292.493 50.1854 292.258 49.6517 291.788 48.9258L282.501 33.8742C281.647 32.5078 280.921 31.5897 280.323 31.12C279.768 30.6504 279 30.3728 278.017 30.2874V46.2998C278.017 47.9224 278.124 49.0966 278.338 49.8225C278.594 50.5484 279.042 51.0394 279.683 51.2956C280.323 51.5518 281.369 51.7226 282.821 51.808V53.089C280.515 52.9609 277.292 52.8969 273.15 52.8969C268.581 52.8969 265.208 52.9609 263.03 53.089V51.808C264.439 51.7226 265.464 51.5518 266.104 51.2956C266.787 51.0394 267.236 50.5484 267.449 49.8225C267.706 49.0966 267.834 47.9224 267.834 46.2998V14.5312C267.834 12.9086 267.706 11.7344 267.449 11.0085C267.236 10.2826 266.787 9.79157 266.104 9.53537C265.464 9.27917 264.439 9.10837 263.03 9.02297V7.74199C265.208 7.87008 268.581 7.93413 273.15 7.93413C277.292 7.93413 280.515 7.87008 282.821 7.74199V9.02297C281.369 9.10837 280.323 9.27917 279.683 9.53537C279.042 9.79157 278.594 10.2826 278.338 11.0085C278.124 11.7344 278.017 12.9086 278.017 14.5312V28.9424C279.725 28.857 281.284 28.3446 282.693 27.4052C284.102 26.4658 285.703 24.9713 287.497 22.9217L291.276 18.3742C293.24 16.1111 294.222 14.1256 294.222 12.4176C294.222 11.3928 293.795 10.5815 292.941 9.98372C292.13 9.38592 290.977 9.04432 289.482 8.95893V7.74199C292.599 7.87008 295.759 7.93413 298.962 7.93413C301.438 7.93413 303.445 7.87008 304.982 7.74199V8.95893C301.566 9.77022 298.471 11.8198 295.695 15.1077L287.689 24.651L302.612 47.901Z" fill="#9F9F9F"/>
<path d="M316.567 53.5374C313.834 53.5374 311.784 52.8328 310.418 51.4237C309.094 50.0146 308.432 48.1572 308.432 45.8514C308.432 43.9299 308.924 42.3501 309.906 41.1118C310.93 39.8308 312.147 38.8487 313.556 38.1655C315.008 37.4823 316.844 36.7564 319.065 35.9878C321.413 35.1765 323.121 34.4506 324.189 33.8101C325.299 33.1269 325.854 32.2089 325.854 31.056V26.0601C325.854 24.2668 325.427 22.879 324.573 21.8969C323.762 20.8721 322.481 20.3597 320.73 20.3597C318.68 20.3597 317.122 20.8721 316.054 21.8969C317.25 22.3239 318.168 22.9644 318.809 23.8184C319.492 24.6724 319.833 25.6758 319.833 26.8287C319.833 28.2805 319.342 29.4334 318.36 30.2874C317.378 31.1414 316.182 31.5684 314.773 31.5684C313.279 31.5684 312.126 31.0987 311.315 30.1593C310.503 29.2199 310.098 28.0457 310.098 26.6366C310.098 25.441 310.375 24.4376 310.93 23.6263C311.528 22.7723 312.425 21.9823 313.62 21.2564C314.773 20.5732 316.182 20.0395 317.848 19.6552C319.556 19.2709 321.413 19.0787 323.42 19.0787C325.512 19.0787 327.327 19.2922 328.864 19.7192C330.401 20.1462 331.682 20.8721 332.707 21.8969C333.647 22.8363 334.266 23.9892 334.565 25.3556C334.906 26.722 335.077 28.5794 335.077 30.9279V48.3494C335.077 49.3742 335.162 50.1 335.333 50.527C335.547 50.954 335.931 51.1675 336.486 51.1675C337.127 51.1675 337.895 50.8046 338.792 50.0787L339.432 51.1675C337.511 52.7474 335.162 53.5374 332.387 53.5374C330.039 53.5374 328.395 53.0677 327.455 52.1283C326.516 51.1889 326.025 49.9293 325.982 48.3494C323.847 51.808 320.709 53.5374 316.567 53.5374ZM321.499 49.4382C323.164 49.4382 324.616 48.5629 325.854 46.8122V33.682C325.342 34.536 324.253 35.4754 322.587 36.5002C320.922 37.5677 319.662 38.6352 318.809 39.7027C317.955 40.7702 317.528 42.3074 317.528 44.3142C317.528 46.0649 317.89 47.3673 318.616 48.2213C319.342 49.0326 320.303 49.4382 321.499 49.4382Z" fill="#9F9F9F"/>
<path d="M354.265 19.9754H361.823V21.2564H354.265V47.1324C354.265 48.4134 354.478 49.3315 354.905 49.8866C355.375 50.3989 356.101 50.6551 357.083 50.6551C358.919 50.6551 360.371 49.3742 361.438 46.8122L362.527 47.3886C360.905 51.7867 357.98 53.9857 353.753 53.9857C350.934 53.9857 348.799 53.2598 347.348 51.808C346.451 50.9113 345.832 49.8012 345.49 48.4775C345.191 47.1111 345.042 45.2536 345.042 42.9052V21.2564H339.662V19.9754H345.042V11.5209C348.586 11.5209 351.66 10.8377 354.265 9.47132V19.9754Z" fill="#9F9F9F"/>
<path d="M376.782 25.0353C378.704 21.0643 382.184 19.0787 387.222 19.0787C390.553 19.0787 392.901 19.9114 394.268 21.5767C394.994 22.388 395.506 23.4555 395.805 24.7791C396.147 26.0601 396.317 27.7681 396.317 29.9031V47.1324C396.317 48.8831 396.616 50.1 397.214 50.7832C397.812 51.4237 398.879 51.744 400.417 51.744V53.089C395.976 52.9182 393.158 52.8328 391.962 52.8328C390.51 52.8328 387.735 52.9182 383.636 53.089V51.744C384.917 51.744 385.813 51.4237 386.326 50.7832C386.838 50.1 387.094 48.8831 387.094 47.1324V27.213C387.094 25.4623 386.795 24.1387 386.198 23.242C385.642 22.3453 384.618 21.8969 383.123 21.8969C381.33 21.8969 379.814 22.6015 378.576 24.0106C377.38 25.3769 376.782 27.1276 376.782 29.2626V47.1324C376.782 48.8831 377.038 50.1 377.551 50.7832C378.063 51.4237 378.96 51.744 380.241 51.744V53.089C376.142 52.9182 373.494 52.8328 372.299 52.8328C370.847 52.8328 367.901 52.9182 363.46 53.089V51.744C364.954 51.744 366.001 51.4237 366.598 50.7832C367.239 50.1 367.559 48.8831 367.559 47.1324V10.6883C367.559 8.72408 367.239 7.29364 366.598 6.39694C366.001 5.50025 364.954 5.0519 363.46 5.0519V3.70687C364.826 3.83497 366.15 3.89902 367.431 3.89902C371.146 3.89902 374.263 3.60012 376.782 3.00232V25.0353Z" fill="#9F9F9F"/>
<path d="M419.273 19.0787C424.183 19.0787 428.026 20.4878 430.802 23.306C433.577 26.0815 434.965 30.5009 434.965 36.5643C434.965 42.6276 433.577 47.047 430.802 49.8225C428.026 52.598 424.183 53.9857 419.273 53.9857C414.405 53.9857 410.562 52.598 407.744 49.8225C404.968 47.047 403.581 42.6276 403.581 36.5643C403.581 30.5009 404.968 26.0815 407.744 23.306C410.562 20.4878 414.405 19.0787 419.273 19.0787ZM419.273 20.3597C417.437 20.3597 415.963 21.7048 414.853 24.3949C413.786 27.0422 413.252 31.0987 413.252 36.5643C413.252 42.0298 413.786 46.0863 414.853 48.7337C415.963 51.381 417.437 52.7047 419.273 52.7047C421.151 52.7047 422.625 51.4024 423.692 48.7977C424.76 46.1503 425.293 42.0725 425.293 36.5643C425.293 31.056 424.738 26.9782 423.628 24.3308C422.561 21.6834 421.109 20.3597 419.273 20.3597Z" fill="#9F9F9F"/>
<path d="M455.616 19.0787C457.196 19.0787 458.691 19.2495 460.1 19.5911C461.509 19.9327 462.683 20.4024 463.622 21.0002C464.733 21.6834 465.587 22.5588 466.184 23.6263C466.825 24.6511 467.145 25.7826 467.145 27.0209C467.145 28.5154 466.675 29.7537 465.736 30.7358C464.797 31.6751 463.58 32.1448 462.085 32.1448C460.591 32.1448 459.395 31.7178 458.498 30.8639C457.602 30.0099 457.153 28.857 457.153 27.4052C457.153 26.1242 457.559 25.014 458.37 24.0746C459.182 23.1352 460.185 22.4947 461.381 22.1531C461.039 21.6834 460.505 21.3205 459.779 21.0643C459.096 20.7654 458.349 20.6159 457.538 20.6159C454.976 20.6159 452.969 22.025 451.517 24.8432C450.108 27.6187 449.403 31.2695 449.403 35.7957C449.403 40.3645 450.215 43.6524 451.837 45.6593C453.46 47.6662 455.488 48.6696 457.922 48.6696C459.374 48.6696 460.826 48.2853 462.277 47.5167C463.772 46.7481 465.117 45.4031 466.312 43.4816L467.401 43.8659C466.547 46.6414 465.053 49.0326 462.918 51.0394C460.783 53.0036 458.029 53.9857 454.655 53.9857C450.257 53.9857 446.671 52.5339 443.895 49.6304C441.12 46.7268 439.732 42.4141 439.732 36.6924C439.732 32.9348 440.415 29.7323 441.782 27.0849C443.148 24.4376 445.027 22.452 447.418 21.1283C449.809 19.7619 452.542 19.0787 455.616 19.0787Z" fill="#9F9F9F"/>
<path d="M553.468 33.2132V51.0394H547.463V5.50425H564.257C569.24 5.50425 573.139 6.77607 575.954 9.3197C578.789 11.8633 580.207 15.2305 580.207 19.4213C580.207 23.8413 578.821 27.2502 576.048 29.6479C573.296 32.0247 569.345 33.2132 564.195 33.2132H553.468ZM553.468 28.3031H564.257C567.468 28.3031 569.928 27.5525 571.638 26.0514C573.348 24.5294 574.202 22.3402 574.202 19.4838C574.202 16.7734 573.348 14.605 571.638 12.9788C569.928 11.3525 567.583 10.5081 564.601 10.4456H553.468V28.3031Z" fill="#9F9F9F"/>
<path d="M600.567 51.6649C595.98 51.6649 592.248 50.1638 589.37 47.1614C586.493 44.1383 585.055 40.1039 585.055 35.0583V33.995C585.055 30.6383 585.691 27.6464 586.962 25.0193C588.255 22.3715 590.048 20.3074 592.341 18.827C594.656 17.3259 597.158 16.5753 599.847 16.5753C604.247 16.5753 607.666 18.0243 610.105 20.9224C612.545 23.8205 613.764 27.9695 613.764 33.3695V35.7776H590.84C590.924 39.1136 591.893 41.8136 593.749 43.8777C595.625 45.9209 598.002 46.9425 600.879 46.9425C602.923 46.9425 604.653 46.5255 606.071 45.6916C607.489 44.8576 608.729 43.7526 609.792 42.3765L613.326 45.1286C610.491 49.4862 606.238 51.6649 600.567 51.6649ZM599.847 21.329C597.512 21.329 595.552 22.1838 593.968 23.8935C592.383 25.5823 591.403 27.9591 591.028 31.024H607.979V30.5861C607.812 27.6464 607.019 25.3738 605.602 23.7684C604.184 22.1421 602.266 21.329 599.847 21.329Z" fill="#9F9F9F"/>
<path d="M636.845 22.3923C635.969 22.2464 635.02 22.1734 633.999 22.1734C630.204 22.1734 627.629 23.7892 626.274 27.0209V51.0394H620.488V17.2008H626.118L626.211 21.1101C628.109 18.0869 630.798 16.5753 634.28 16.5753C635.406 16.5753 636.261 16.7213 636.845 17.0131V22.3923Z" fill="#9F9F9F"/>
<path d="M647.665 17.2008L647.853 21.4541C650.438 18.2016 653.816 16.5753 657.986 16.5753C665.137 16.5753 668.744 20.6097 668.807 28.6784V51.0394H663.021V28.6471C663 26.2078 662.437 24.4043 661.332 23.2367C660.248 22.0691 658.549 21.4854 656.235 21.4854C654.358 21.4854 652.711 21.9857 651.293 22.9865C649.876 23.9873 648.771 25.3008 647.978 26.9271V51.0394H642.193V17.2008H647.665Z" fill="#9F9F9F"/>
<path d="M683.818 51.0394H678.033V17.2008H683.818V51.0394ZM677.564 8.22511C677.564 7.28688 677.845 6.4946 678.408 5.84827C678.992 5.20194 679.847 4.87877 680.972 4.87877C682.098 4.87877 682.953 5.20194 683.537 5.84827C684.121 6.4946 684.413 7.28688 684.413 8.22511C684.413 9.16333 684.121 9.94518 683.537 10.5707C682.953 11.1962 682.098 11.5089 680.972 11.5089C679.847 11.5089 678.992 11.1962 678.408 10.5707C677.845 9.94518 677.564 9.16333 677.564 8.22511Z" fill="#9F9F9F"/>
<path d="M702.552 35.3711L698.924 39.1553V51.0394H693.138V3.00232H698.924V32.056L702.02 28.3344L712.559 17.2008H719.596L706.43 31.3367L721.128 51.0394H714.342L702.552 35.3711Z" fill="#9F9F9F"/>
<path d="M827.002 18.118C826.703 15.8549 826.084 13.8907 825.145 12.2254C824.205 10.5175 822.946 9.21512 821.366 8.31843C819.829 7.37903 817.971 6.90934 815.794 6.90934C813.701 6.90934 811.951 7.50713 810.542 8.70272C809.175 9.89831 808.492 11.3715 808.492 13.1221C808.492 14.5739 808.898 15.8336 809.709 16.9011C810.563 17.9686 811.78 18.9506 813.36 19.8473C814.94 20.7013 816.818 21.598 818.996 22.5374C820.619 23.2206 822.263 23.9892 823.928 24.8432C825.593 25.6545 827.13 26.6366 828.539 27.7895C829.949 28.9424 831.08 30.2874 831.934 31.8246C832.831 33.3191 833.279 35.1125 833.279 37.2048C833.279 39.6813 832.617 41.8804 831.294 43.8018C830.013 45.7233 828.177 47.2178 825.785 48.2853C823.394 49.3528 820.576 49.8865 817.331 49.8865C815.537 49.8865 813.637 49.609 811.63 49.0539C809.624 48.5415 807.787 47.7516 806.122 46.6841L806.314 49.4382H801.959L801.831 34.899H805.482C805.951 38.5284 807.296 41.2826 809.517 43.1614C811.737 44.9974 814.406 45.9155 817.523 45.9155C819.103 45.9155 820.512 45.6379 821.75 45.0828C822.989 44.485 823.949 43.6951 824.632 42.713C825.358 41.6882 825.721 40.5353 825.721 39.2543C825.721 37.589 825.209 36.2227 824.184 35.1552C823.159 34.0877 821.857 33.1696 820.277 32.401C818.697 31.6324 817.053 30.8852 815.345 30.1593C813.424 29.348 811.609 28.494 809.901 27.5973C808.193 26.6579 806.677 25.6118 805.354 24.4589C804.073 23.2633 803.048 21.8969 802.279 20.3597C801.553 18.8225 801.19 17.0078 801.19 14.9155C801.19 13.6772 801.425 12.3749 801.895 11.0085C802.365 9.59942 803.133 8.29708 804.201 7.10149C805.311 5.9059 806.784 4.92381 808.62 4.15521C810.456 3.38662 812.741 3.00232 815.473 3.00232C817.181 3.00232 819.039 3.25852 821.046 3.77091C823.095 4.24061 824.889 5.03055 826.426 6.14074L826.17 3.45066H830.589V18.118H827.002Z" fill="#9F9F9F"/>
<path d="M837.193 65.1944V61.7998C838.431 61.7998 839.306 61.5222 839.819 60.9671C840.374 60.4547 840.715 59.7075 840.844 58.7254C840.972 57.7433 841.036 56.6331 841.036 55.3948L841.1 27.0209C841.1 26.2523 841.1 25.441 841.1 24.587C841.142 23.733 841.228 22.8577 841.356 21.961C840.63 22.0037 839.819 22.0464 838.922 22.0891C838.068 22.1318 837.363 22.1745 836.808 22.2172V18.0539C838.773 18.0539 840.352 17.9686 841.548 17.7978C842.786 17.5843 843.726 17.3281 844.366 17.0292C845.049 16.7303 845.54 16.4527 845.839 16.1965H848.593C848.679 16.6235 848.743 17.1359 848.786 17.7337C848.828 18.3315 848.871 18.8866 848.914 19.399C850.323 18.1607 851.817 17.264 853.397 16.7089C854.977 16.1111 856.493 15.8122 857.945 15.8122C860.507 15.8122 862.791 16.4741 864.798 17.7978C866.805 19.0787 868.385 20.9362 869.538 23.3701C870.691 25.7612 871.267 28.6008 871.267 31.8886C871.267 35.39 870.562 38.5071 869.153 41.2399C867.787 43.9299 865.908 46.0436 863.517 47.5808C861.126 49.118 858.372 49.8865 855.255 49.8865C853.974 49.8865 852.821 49.7371 851.796 49.4382C850.771 49.182 849.81 48.8404 848.914 48.4134V56.0353C848.914 56.7185 848.892 57.5298 848.85 58.4692C848.85 59.4513 848.786 60.3907 848.658 61.2874C849.341 61.202 850.067 61.1379 850.835 61.0952C851.604 61.0952 852.244 61.0952 852.757 61.0952V65.1944H837.193ZM854.55 45.8514C856.514 45.8087 858.094 45.2109 859.29 44.058C860.528 42.8625 861.425 41.2826 861.98 39.3184C862.535 37.3542 862.812 35.2192 862.812 32.9134C862.812 30.8211 862.535 28.8356 861.98 26.9568C861.467 25.078 860.635 23.5622 859.482 22.4093C858.329 21.2564 856.792 20.68 854.87 20.68C853.675 20.7227 852.543 21.0216 851.476 21.5767C850.451 22.1318 849.597 22.8577 848.914 23.7544C848.914 24.6937 848.914 25.6545 848.914 26.6366C848.914 27.6187 848.914 28.6648 848.914 29.775C848.914 30.8852 848.914 32.1448 848.914 33.5539C848.914 34.9203 848.914 36.4789 848.914 38.2295C848.914 39.9802 848.914 41.9871 848.914 44.2502C849.597 44.7199 850.43 45.1042 851.412 45.4031C852.394 45.702 853.44 45.8514 854.55 45.8514Z" fill="#9F9F9F"/>
<path d="M894.62 48.8618C894.492 48.2213 894.407 47.6875 894.364 47.2605C894.364 46.7908 894.343 46.2571 894.3 45.6593C892.848 47.1111 891.289 48.1786 889.624 48.8618C888.002 49.545 886.315 49.8865 884.564 49.8865C881.661 49.8865 879.419 49.0966 877.839 47.5167C876.302 45.9368 875.533 43.994 875.533 41.6882C875.533 39.6386 876.088 37.9093 877.199 36.5002C878.309 35.0484 879.761 33.8742 881.554 32.9775C883.347 32.0381 885.333 31.3335 887.511 30.8638C889.688 30.3515 891.845 30.0739 893.98 30.0312V26.5085C893.98 25.2702 893.83 24.1387 893.531 23.1139C893.275 22.0464 892.784 21.2137 892.058 20.6159C891.332 19.9754 890.265 19.6552 888.856 19.6552C887.916 19.6979 886.955 19.9114 885.973 20.2957C885.034 20.6373 884.287 21.1924 883.732 21.961C884.073 22.3453 884.287 22.7723 884.372 23.242C884.458 23.669 884.5 24.0533 884.5 24.3948C884.5 25.1634 884.201 25.9747 883.604 26.8287C883.006 27.64 882.045 28.0243 880.721 27.9816C879.568 27.9389 878.672 27.5333 878.031 26.7647C877.433 25.9961 877.135 25.078 877.135 24.0106C877.135 22.388 877.711 20.9789 878.864 19.7833C880.059 18.545 881.661 17.5843 883.668 16.9011C885.674 16.1752 887.916 15.8122 890.393 15.8122C894.065 15.8122 896.883 16.773 898.847 18.6944C900.812 20.6159 901.772 23.6903 901.73 27.9176C901.73 29.4121 901.73 30.7784 901.73 32.0167C901.73 33.2123 901.708 34.4293 901.665 35.6676C901.665 36.8632 901.665 38.2082 901.665 39.7027C901.665 40.3432 901.644 41.1545 901.601 42.1366C901.559 43.076 901.495 44.0153 901.409 44.9547C902.178 44.8693 902.946 44.8266 903.715 44.8266C904.526 44.7839 905.188 44.7412 905.701 44.6985V48.8618H894.62ZM893.916 33.8101C892.635 33.8955 891.375 34.109 890.137 34.4506C888.898 34.7495 887.788 35.1765 886.806 35.7316C885.824 36.2867 885.034 36.9913 884.436 37.8452C883.881 38.6565 883.625 39.5959 883.668 40.6634C883.71 41.9871 884.137 42.9692 884.949 43.6097C885.76 44.2075 886.699 44.5064 887.767 44.5064C889.005 44.5064 890.115 44.2502 891.097 43.7378C892.122 43.2254 893.062 42.5422 893.916 41.6882C893.916 41.2612 893.916 40.8129 893.916 40.3432C893.916 39.8735 893.916 39.4038 893.916 38.9341C893.916 38.3363 893.916 37.589 893.916 36.6924C893.916 35.7957 893.916 34.8349 893.916 33.8101Z" fill="#9F9F9F"/>
<path d="M921.816 49.8865C920.62 49.8865 919.446 49.7371 918.293 49.4382C917.183 49.1393 916.158 48.5842 915.218 47.7729C914.322 46.9616 913.596 45.766 913.041 44.1861C912.486 42.5636 912.208 40.4286 912.208 37.7812L912.336 21.2564L907.789 21.3205V16.837C909.07 16.7943 910.308 16.3673 911.504 15.556C912.699 14.702 913.745 13.5918 914.642 12.2254C915.539 10.8591 916.137 9.40727 916.435 7.87008H920.342L920.278 16.837H929.309V20.9362L920.278 21.1283L920.214 37.589C920.214 38.87 920.321 40.0656 920.535 41.1758C920.791 42.2433 921.218 43.0973 921.816 43.7378C922.456 44.3783 923.31 44.6985 924.378 44.6985C925.189 44.6985 926.107 44.4423 927.132 43.9299C928.199 43.4175 929.267 42.3928 930.334 40.8556L932.96 43.2254C931.893 44.848 930.782 46.1076 929.63 47.0043C928.519 47.901 927.431 48.5629 926.363 48.9899C925.338 49.4169 924.42 49.673 923.609 49.7584C922.798 49.8438 922.2 49.8865 921.816 49.8865Z" fill="#9F9F9F"/>
<path d="M948.543 49.8865C946.067 49.8865 944.038 49.4169 942.459 48.4775C940.921 47.5381 939.79 46.0436 939.064 43.994C938.338 41.9017 937.975 39.1689 937.975 35.7957V27.0849C937.975 26.359 937.996 25.5477 938.039 24.651C938.082 23.7544 938.125 22.8577 938.167 21.961C937.484 22.0037 936.715 22.0464 935.861 22.0891C935.007 22.0891 934.303 22.1104 933.748 22.1531V18.0539H934.837C937.185 18.0539 939 17.8618 940.281 17.4775C941.605 17.0505 942.501 16.6235 942.971 16.1965H945.917V35.7957C945.917 38.87 946.323 41.1545 947.134 42.649C947.988 44.1434 949.355 44.8907 951.233 44.8907C952.514 44.848 953.774 44.4637 955.012 43.7378C956.293 43.0119 957.318 42.1579 958.087 41.1758V27.3411C958.087 26.4871 958.108 25.6118 958.151 24.7151C958.193 23.7757 958.257 22.8577 958.343 21.961C957.66 22.0037 956.87 22.0464 955.973 22.0891C955.119 22.0891 954.414 22.1104 953.859 22.1531V18.0539H955.525C957.489 18.0539 959.111 17.8405 960.392 17.4135C961.716 16.9865 962.591 16.5808 963.018 16.1965H965.965V39.1903C965.965 39.7881 965.943 40.6634 965.901 41.8163C965.858 42.9692 965.794 44.0153 965.708 44.9547C966.434 44.8693 967.203 44.8266 968.014 44.8266C968.826 44.7839 969.487 44.7412 970 44.6985V48.8618H958.855C958.77 48.264 958.684 47.6662 958.599 47.0684C958.556 46.4706 958.514 45.8941 958.471 45.339C957.147 46.5346 955.653 47.6021 953.987 48.5415C952.365 49.4382 950.55 49.8865 948.543 49.8865Z" fill="#9F9F9F"/>
</svg>
