<svg width="32" height="31" viewBox="0 0 32 31" fill="none" xmlns="http://www.w3.org/2000/svg">
<path d="M6.99986 14.9999C6.99986 14.7347 7.10522 14.4804 7.29275 14.2928C7.48029 14.1053 7.73464 13.9999 7.99986 13.9999L21.5899 13.9999L20.2899 12.7099C20.1016 12.5216 19.9958 12.2662 19.9958 11.9999C19.9958 11.7336 20.1016 11.4782 20.2899 11.2899C20.4782 11.1016 20.7336 10.9958 20.9999 10.9958C21.2662 10.9958 21.5216 11.1016 21.7099 11.2899L24.7099 14.2899C24.8486 14.4306 24.9426 14.6091 24.98 14.8031C25.0174 14.9971 24.9964 15.1978 24.9199 15.3799C24.8448 15.5626 24.7174 15.7189 24.5537 15.8292C24.39 15.9396 24.1973 15.999 23.9999 15.9999L7.99986 15.9999C7.73464 15.9999 7.48029 15.8946 7.29275 15.707C7.10522 15.5195 6.99986 15.2652 6.99986 14.9999Z" fill="#393D46"/>
<path d="M19.9998 17.9999C19.9991 17.8683 20.0243 17.7379 20.074 17.616C20.1238 17.4942 20.1971 17.3834 20.2898 17.2899L23.2898 14.2899C23.4781 14.1016 23.7335 13.9958 23.9998 13.9958C24.1317 13.9958 24.2622 14.0218 24.3841 14.0723C24.5059 14.1227 24.6166 14.1967 24.7098 14.2899C24.8031 14.3832 24.877 14.4939 24.9275 14.6157C24.9779 14.7375 25.0039 14.8681 25.0039 14.9999C25.0039 15.2662 24.8981 15.5216 24.7098 15.7099L21.7098 18.7099C21.6169 18.8037 21.5063 18.8781 21.3844 18.9288C21.2625 18.9796 21.1318 19.0057 20.9998 19.0057C20.8678 19.0057 20.7371 18.9796 20.6152 18.9288C20.4934 18.8781 20.3828 18.8037 20.2898 18.7099C20.1971 18.6165 20.1238 18.5057 20.074 18.3838C20.0243 18.262 19.9991 18.1315 19.9998 17.9999Z" fill="#393D46"/>
</svg>
