<svg width="32" height="31" viewBox="0 0 32 31" fill="none" xmlns="http://www.w3.org/2000/svg">
<path d="M7.0001 15.0002C7.0001 14.735 7.10546 14.4806 7.293 14.2931C7.48053 14.1055 7.73489 14.0002 8.0001 14.0002L21.5901 14.0002L20.2901 12.7102C20.1018 12.5219 19.996 12.2665 19.996 12.0002C19.996 11.7339 20.1018 11.4785 20.2901 11.2902C20.4784 11.1019 20.7338 10.9961 21.0001 10.9961C21.2664 10.9961 21.5218 11.1019 21.7101 11.2902L24.7101 14.2902C24.8489 14.4308 24.9429 14.6094 24.9802 14.8034C25.0176 14.9974 24.9967 15.1981 24.9201 15.3802C24.8451 15.5628 24.7177 15.7191 24.554 15.8295C24.3902 15.9398 24.1975 15.9992 24.0001 16.0002L8.0001 16.0002C7.73489 16.0002 7.48053 15.8948 7.293 15.7073C7.10546 15.5198 7.0001 15.2654 7.0001 15.0002Z" fill="#393D46"/>
<path d="M20.0001 18.0002C19.9993 17.8686 20.0245 17.7381 20.0743 17.6163C20.1241 17.4944 20.1974 17.3836 20.2901 17.2902L23.2901 14.2902C23.4784 14.1019 23.7338 13.9961 24.0001 13.9961C24.1319 13.9961 24.2625 14.0221 24.3843 14.0725C24.5061 14.123 24.6168 14.1969 24.7101 14.2902C24.8033 14.3834 24.8773 14.4941 24.9277 14.6159C24.9782 14.7378 25.0042 14.8683 25.0042 15.0002C25.0042 15.2665 24.8984 15.5219 24.7101 15.7102L21.7101 18.7102C21.6171 18.8039 21.5065 18.8783 21.3846 18.9291C21.2628 18.9798 21.1321 19.006 21.0001 19.006C20.868 19.006 20.7373 18.9798 20.6155 18.9291C20.4936 18.8783 20.383 18.8039 20.2901 18.7102C20.1974 18.6167 20.1241 18.5059 20.0743 18.3841C20.0245 18.2623 19.9993 18.1318 20.0001 18.0002Z" fill="#393D46"/>
</svg>
