<svg width="60" height="60" viewBox="0 0 60 60" fill="none" xmlns="http://www.w3.org/2000/svg">
<rect width="60" height="60" fill="white"/>
<path d="M20.9999 29.5C20.9999 29.2348 21.1052 28.9804 21.2928 28.7929C21.4803 28.6054 21.7346 28.5 21.9999 28.5L35.5899 28.5L34.2899 27.21C34.1016 27.0217 33.9958 26.7663 33.9958 26.5C33.9958 26.2337 34.1016 25.9783 34.2899 25.79C34.4782 25.6017 34.7336 25.4959 34.9999 25.4959C35.2662 25.4959 35.5216 25.6017 35.7099 25.79L38.7099 28.79C38.8486 28.9306 38.9426 29.1092 38.98 29.3032C39.0174 29.4972 38.9964 29.6979 38.9199 29.88C38.8448 30.0626 38.7174 30.2189 38.5537 30.3293C38.39 30.4396 38.1973 30.499 37.9999 30.5L21.9999 30.5C21.7346 30.5 21.4803 30.3946 21.2928 30.2071C21.1052 30.0196 20.9999 29.7652 20.9999 29.5Z" fill="#393D46"/>
<path d="M33.9998 32.5C33.9991 32.3684 34.0243 32.2379 34.074 32.1161C34.1238 31.9943 34.1971 31.8834 34.2898 31.79L37.2898 28.79C37.4781 28.6017 37.7335 28.4959 37.9998 28.4959C38.1317 28.4959 38.2622 28.5219 38.3841 28.5723C38.5059 28.6228 38.6166 28.6968 38.7098 28.79C38.8031 28.8832 38.877 28.9939 38.9275 29.1158C38.9779 29.2376 39.0039 29.3681 39.0039 29.5C39.0039 29.7663 38.8981 30.0217 38.7098 30.21L35.7098 33.21C35.6169 33.3037 35.5063 33.3781 35.3844 33.4289C35.2625 33.4797 35.1318 33.5058 34.9998 33.5058C34.8678 33.5058 34.7371 33.4797 34.6152 33.4289C34.4934 33.3781 34.3828 33.3037 34.2898 33.21C34.1971 33.1166 34.1238 33.0057 34.074 32.8839C34.0243 32.7621 33.9991 32.6316 33.9998 32.5Z" fill="#393D46"/>
</svg>
