<svg width="32" height="32" viewBox="0 0 32 32" fill="none" xmlns="http://www.w3.org/2000/svg">
<path d="M11.3904 26H20.7237C21.0773 26 21.4165 25.8595 21.6665 25.6095C21.9166 25.3594 22.057 25.0203 22.057 24.6667V13.6093L23.1144 14.6667C23.3682 14.9094 23.7059 15.0448 24.057 15.0448C24.4082 15.0448 24.7459 14.9094 24.9997 14.6667L26.7237 12.9427C26.9737 12.6926 27.1141 12.3536 27.1141 12C27.1141 11.6465 26.9737 11.3074 26.7237 11.0573L22.2517 6.58534C22.0665 6.39922 21.8462 6.25165 21.6036 6.15119C21.3611 6.05072 21.101 5.99933 20.8384 6.00001H11.2757C11.0131 5.99933 10.753 6.05072 10.5105 6.15119C10.2679 6.25165 10.0476 6.39922 9.86238 6.58534L5.39038 11.0573C5.14042 11.3074 5 11.6465 5 12C5 12.3536 5.14042 12.6926 5.39038 12.9427L7.11438 14.6667C7.36821 14.9094 7.70586 15.0448 8.05705 15.0448C8.40824 15.0448 8.74589 14.9094 8.99972 14.6667L10.057 13.6093V24.6667C10.057 25.0203 10.1975 25.3594 10.4476 25.6095C10.6976 25.8595 11.0368 26 11.3904 26ZM17.9344 7.33334C17.7986 7.72304 17.5449 8.06082 17.2086 8.29985C16.8722 8.53888 16.4697 8.6673 16.057 8.6673C15.6444 8.6673 15.2419 8.53888 14.9055 8.29985C14.5692 8.06082 14.3155 7.72304 14.1797 7.33334H17.9344ZM8.05705 13.724L6.33305 12L10.805 7.52801C10.93 7.40338 11.0992 7.33338 11.2757 7.33334H12.7917C12.9447 8.08687 13.3535 8.76432 13.9489 9.25092C14.5442 9.73753 15.2895 10.0033 16.0584 10.0033C16.8273 10.0033 17.5725 9.73753 18.1679 9.25092C18.7632 8.76432 19.172 8.08687 19.325 7.33334H20.841C21.0175 7.33338 21.1868 7.40338 21.3117 7.52801L25.781 12L24.057 13.724L21.8624 11.528C21.7691 11.4345 21.6502 11.3708 21.5208 11.345C21.3913 11.3192 21.2571 11.3324 21.1351 11.383C21.0131 11.4335 20.9089 11.5191 20.8357 11.629C20.7625 11.7389 20.7235 11.868 20.7237 12V24.6667H11.3904V12C11.3906 11.868 11.3516 11.7389 11.2784 11.629C11.2052 11.5191 11.101 11.4335 10.979 11.383C10.857 11.3324 10.7228 11.3192 10.5933 11.345C10.4639 11.3708 10.345 11.4345 10.2517 11.528L8.05705 13.724Z" fill="#393D46"/>
</svg>
