<svg width="10" height="7" viewBox="0 0 10 7" fill="none" xmlns="http://www.w3.org/2000/svg">
<path d="M5.03161 6.03711C4.89928 6.03787 4.7681 6.01251 4.64559 5.96247C4.52308 5.91243 4.41166 5.8387 4.3177 5.74551L0.295709 1.72352C0.10637 1.53418 0 1.27738 0 1.00961C0 0.741847 0.10637 0.485048 0.295709 0.295708C0.485048 0.106369 0.741847 0 1.00961 0C1.27738 0 1.53418 0.106369 1.72352 0.295708L5.03161 3.61385L8.3397 0.305764C8.53205 0.141036 8.77948 0.0549591 9.03254 0.0647337C9.2856 0.0745083 9.52565 0.179415 9.70473 0.358489C9.8838 0.537563 9.98871 0.777614 9.99848 1.03067C10.0083 1.28373 9.92218 1.53116 9.75745 1.72352L5.73546 5.74551C5.54817 5.93127 5.29539 6.036 5.03161 6.03711Z" fill="#9F9F9F"/>
</svg>
