<svg width="160" height="160" viewBox="0 0 160 160" fill="none" xmlns="http://www.w3.org/2000/svg">
<path d="M130.002 46.8707H95.3958C94.2029 46.8722 93.0325 47.1957 92.0081 47.807C90.9838 48.4183 90.1434 49.2949 89.5758 50.344C89.1228 48.3749 88.2281 46.5345 86.9595 44.9618C85.6909 43.3892 84.0814 42.1254 82.2527 41.266C80.424 40.4067 78.4239 39.9742 76.4035 40.0012C74.3831 40.0282 72.3953 40.5141 70.5902 41.4221C68.7851 42.3301 67.21 43.6364 65.9839 45.2425C64.7578 46.8485 63.9128 48.7122 63.5126 50.6928C63.1124 52.6733 63.1676 54.7189 63.6741 56.675C64.1805 58.6311 65.1248 60.4465 66.4358 61.984C65.6358 62.1507 61.0024 63.2174 59.1958 63.6374C58.3561 63.8676 57.6398 64.4173 57.2002 65.1689C56.7605 65.9204 56.6323 66.8141 56.8431 67.6589C57.0539 68.5037 57.5868 69.2325 58.328 69.6894C59.0691 70.1464 59.9597 70.2952 60.8091 70.104C66.6116 68.4385 72.5819 67.4255 78.6091 67.084C73.6281 71.2678 67.3273 73.5538 60.8224 73.5374C52.229 73.5426 43.8834 76.4178 37.1103 81.7066C30.3371 86.9955 25.5243 94.3949 23.4358 102.731C23.2558 103.457 23.3758 106.377 23.3358 110.204C23.3358 111.517 23.5944 112.818 24.097 114.031C24.5995 115.244 25.3361 116.347 26.2647 117.275C27.1933 118.204 28.2957 118.94 29.5089 119.443C30.7222 119.945 32.0225 120.204 33.3358 120.204H90.5758C93.2245 120.195 95.7633 119.144 97.6424 117.277L100.002 114.917L102.362 117.277C104.242 119.144 106.78 120.195 109.429 120.204H126.669C129.321 120.204 131.865 119.15 133.74 117.275C135.616 115.4 136.669 112.856 136.669 110.204V53.5374C136.669 51.7693 135.967 50.0736 134.716 48.8233C133.466 47.5731 131.771 46.8707 130.002 46.8707ZM76.6691 60.204C75.3506 60.204 74.0616 59.8131 72.9653 59.0805C71.869 58.348 71.0145 57.3068 70.5099 56.0886C70.0053 54.8704 69.8733 53.53 70.1305 52.2368C70.3878 50.9436 71.0227 49.7557 71.9551 48.8233C72.8874 47.891 74.0753 47.256 75.3685 46.9988C76.6617 46.7416 78.0022 46.8736 79.2203 47.3782C80.4385 47.8828 81.4797 48.7372 82.2122 49.8336C82.9448 50.9299 83.3358 52.2188 83.3358 53.5374V60.204H76.6691ZM60.8224 80.204C64.1567 80.1988 67.4729 79.7138 70.6691 78.764C71.8081 80.0998 73.0235 81.3686 74.3091 82.564C74.935 83.19 75.7839 83.5416 76.6691 83.5416C77.5543 83.5416 78.4032 83.19 79.0291 82.564C79.655 81.9381 80.0066 81.0892 80.0066 80.204C80.0066 79.3189 79.655 78.47 79.0291 77.844L77.1891 76.004C78.0224 75.5507 78.8558 75.0907 79.6491 74.564L84.3158 79.2307C84.9417 79.8566 85.7906 80.2083 86.6758 80.2083C87.5609 80.2083 88.4099 79.8566 89.0358 79.2307C89.6617 78.6048 90.0133 77.7559 90.0133 76.8707C90.0133 75.9855 89.6617 75.1366 89.0358 74.5107L84.8558 70.3374C85.5224 69.6707 86.1891 69.004 86.7624 68.3374L90.9824 72.564C91.2924 72.874 91.6603 73.1198 92.0652 73.2875C92.4701 73.4553 92.9042 73.5416 93.3424 73.5416C93.7807 73.5416 94.2147 73.4553 94.6197 73.2875C95.0246 73.1198 95.3925 72.874 95.7024 72.564C96.0124 72.2541 96.2582 71.8862 96.4259 71.4813C96.5937 71.0763 96.68 70.6423 96.68 70.204C96.68 69.7657 96.5937 69.3317 96.4259 68.9268C96.2582 68.5219 96.0124 68.154 95.7024 67.844L90.6358 62.784C92.8158 58.9374 93.1491 57.9307 95.4024 53.5374H130.002V100.204H31.2424C33.6069 94.2942 37.6896 89.2292 42.9627 85.6639C48.2358 82.0986 54.4571 80.1967 60.8224 80.204V80.204ZM126.669 113.537H109.429C107.322 113.537 106.569 111.811 104.716 110.204C103.445 108.994 101.757 108.318 100.002 108.318C98.2475 108.318 96.5598 108.994 95.2891 110.204C93.4291 111.817 92.6758 113.537 90.5758 113.537H33.3358C32.4517 113.537 31.6039 113.186 30.9787 112.561C30.3536 111.936 30.0024 111.088 30.0024 110.204V106.871H130.002V110.204C130.002 111.088 129.651 111.936 129.026 112.561C128.401 113.186 127.553 113.537 126.669 113.537Z" fill="#393D46"/>
</svg>
