<svg width="24" height="26" viewBox="0 0 24 26" fill="none" xmlns="http://www.w3.org/2000/svg">
<path d="M8.66667 21.3333C8.2711 21.3333 7.88442 21.4506 7.55553 21.6704C7.22663 21.8902 6.97028 22.2025 6.81891 22.568C6.66753 22.9334 6.62793 23.3356 6.7051 23.7235C6.78227 24.1115 6.97275 24.4678 7.25245 24.7475C7.53216 25.0273 7.88852 25.2177 8.27649 25.2949C8.66445 25.3721 9.06658 25.3325 9.43203 25.1811C9.79749 25.0297 10.1098 24.7734 10.3296 24.4445C10.5494 24.1156 10.6667 23.7289 10.6667 23.3333C10.6667 22.8029 10.456 22.2942 10.0809 21.9191C9.70581 21.544 9.1971 21.3333 8.66667 21.3333ZM22.6667 17.3333H6.66667C6.31304 17.3333 5.97391 17.1929 5.72386 16.9428C5.47381 16.6928 5.33333 16.3536 5.33333 16C5.33333 15.6464 5.47381 15.3072 5.72386 15.0572C5.97391 14.8071 6.31304 14.6667 6.66667 14.6667H17.9883C18.8568 14.6639 19.7011 14.3797 20.3946 13.8567C21.088 13.3336 21.5933 12.6 21.8347 11.7656L23.9486 4.36653C24.0053 4.1681 24.0152 3.9592 23.9774 3.7563C23.9397 3.5534 23.8554 3.36202 23.7311 3.19724C23.6068 3.03246 23.446 2.89878 23.2613 2.80671C23.0766 2.71464 22.873 2.6667 22.6667 2.66667H6.31876C6.04274 1.88981 5.53392 1.21695 4.86163 0.739752C4.18934 0.262557 3.38628 0.004241 2.56185 0H1.33333C0.979711 0 0.640573 0.140476 0.390524 0.390524C0.140476 0.640573 0 0.979711 0 1.33333C0 1.68696 0.140476 2.02609 0.390524 2.27614C0.640573 2.52619 0.979711 2.66667 1.33333 2.66667H2.56185C2.8513 2.66768 3.13263 2.76242 3.36371 2.93671C3.5948 3.11099 3.76322 3.35545 3.84375 3.63347L4.05111 4.35979L4.05143 4.36653L6.23893 12.0228C5.22102 12.1323 4.28383 12.6279 3.62035 13.4076C2.95688 14.1873 2.61762 15.1918 2.67244 16.2141C2.72725 17.2364 3.17197 18.1988 3.91502 18.9031C4.65806 19.6074 5.64288 20 6.66667 20H22.6667C23.0203 20 23.3594 19.8595 23.6095 19.6095C23.8595 19.3594 24 19.0203 24 18.6667C24 18.313 23.8595 17.9739 23.6095 17.7239C23.3594 17.4738 23.0203 17.3333 22.6667 17.3333ZM20.8991 5.33333L19.2708 11.0325C19.1904 11.3108 19.0219 11.5555 18.7907 11.7299C18.5595 11.9043 18.2779 11.9991 17.9883 12H9.00585L8.66593 10.8104L7.10189 5.33333H20.8991ZM19.3333 21.3333C18.9378 21.3333 18.5511 21.4506 18.2222 21.6704C17.8933 21.8902 17.6369 22.2025 17.4856 22.568C17.3342 22.9334 17.2946 23.3356 17.3718 23.7235C17.4489 24.1115 17.6394 24.4678 17.9191 24.7475C18.1988 25.0273 18.5552 25.2177 18.9432 25.2949C19.3311 25.3721 19.7332 25.3325 20.0987 25.1811C20.4642 25.0297 20.7765 24.7734 20.9963 24.4445C21.216 24.1156 21.3333 23.7289 21.3333 23.3333C21.3333 22.8029 21.1226 22.2942 20.7475 21.9191C20.3725 21.544 19.8638 21.3333 19.3333 21.3333Z" fill="white"/>
</svg>
