<svg width="56" height="56" viewBox="0 0 56 56" fill="none" xmlns="http://www.w3.org/2000/svg">
<path d="M45.5008 16.4047H33.3885C32.971 16.4053 32.5613 16.5185 32.2028 16.7325C31.8443 16.9464 31.5501 17.2532 31.3515 17.6204C31.1929 16.9312 30.8798 16.2871 30.4358 15.7366C29.9918 15.1862 29.4284 14.7439 28.7884 14.4431C28.1483 14.1423 27.4483 13.991 26.7412 14.0004C26.034 14.0099 25.3383 14.1799 24.7065 14.4977C24.0747 14.8155 23.5235 15.2728 23.0943 15.8349C22.6652 16.397 22.3694 17.0493 22.2294 17.7425C22.0893 18.4357 22.1086 19.1516 22.2859 19.8362C22.4631 20.5209 22.7936 21.1563 23.2525 21.6944C22.9725 21.7527 21.3508 22.1261 20.7185 22.2731C20.4246 22.3537 20.1739 22.5461 20.02 22.8091C19.8661 23.0721 19.8213 23.3849 19.895 23.6806C19.9688 23.9763 20.1553 24.2314 20.4147 24.3913C20.6741 24.5512 20.9858 24.6033 21.2831 24.5364C23.314 23.9535 25.4036 23.5989 27.5131 23.4794C25.7698 24.9437 23.5645 25.7438 21.2878 25.7381C18.2801 25.7399 15.3592 26.7462 12.9885 28.5973C10.6179 30.4484 8.93347 33.0382 8.20247 35.9557C8.13947 36.2101 8.18147 37.2321 8.16747 38.5714C8.16747 39.031 8.258 39.4862 8.43389 39.9108C8.60978 40.3354 8.86759 40.7213 9.19259 41.0463C9.5176 41.3713 9.90344 41.6291 10.3281 41.805C10.7527 41.9809 11.2078 42.0714 11.6675 42.0714H31.7015C32.6285 42.0684 33.5171 41.7004 34.1748 41.0471L35.0008 40.2211L35.8268 41.0471C36.4845 41.7004 37.3731 42.0684 38.3001 42.0714H44.3341C45.2624 42.0714 46.1526 41.7027 46.809 41.0463C47.4654 40.3899 47.8341 39.4997 47.8341 38.5714V18.7381C47.8341 18.1192 47.5883 17.5258 47.1507 17.0882C46.7131 16.6506 46.1196 16.4047 45.5008 16.4047ZM26.8341 21.0714C26.3726 21.0714 25.9215 20.9346 25.5378 20.6782C25.1541 20.4218 24.855 20.0574 24.6784 19.631C24.5018 19.2047 24.4556 18.7355 24.5456 18.2829C24.6357 17.8302 24.8579 17.4145 25.1842 17.0882C25.5105 16.7618 25.9263 16.5396 26.3789 16.4496C26.8315 16.3596 27.3007 16.4058 27.7271 16.5824C28.1534 16.759 28.5178 17.058 28.7742 17.4418C29.0306 17.8255 29.1675 18.2766 29.1675 18.7381V21.0714H26.8341ZM21.2878 28.0714C22.4548 28.0696 23.6155 27.8998 24.7341 27.5674C25.1328 28.0349 25.5582 28.479 26.0081 28.8974C26.2272 29.1165 26.5243 29.2396 26.8341 29.2396C27.1439 29.2396 27.4411 29.1165 27.6601 28.8974C27.8792 28.6783 28.0023 28.3812 28.0023 28.0714C28.0023 27.7616 27.8792 27.4645 27.6601 27.2454L27.0161 26.6014C27.3078 26.4427 27.5995 26.2817 27.8771 26.0974L29.5105 27.7307C29.7295 27.9498 30.0267 28.0729 30.3365 28.0729C30.6463 28.0729 30.9434 27.9498 31.1625 27.7307C31.3815 27.5117 31.5046 27.2146 31.5046 26.9047C31.5046 26.5949 31.3815 26.2978 31.1625 26.0787L29.6995 24.6181C29.9328 24.3847 30.1661 24.1514 30.3668 23.9181L31.8438 25.3974C31.9523 25.5059 32.0811 25.5919 32.2228 25.6506C32.3645 25.7093 32.5164 25.7396 32.6698 25.7396C32.8232 25.7396 32.9751 25.7093 33.1168 25.6506C33.2586 25.5919 33.3873 25.5059 33.4958 25.3974C33.6043 25.2889 33.6903 25.1602 33.749 25.0184C33.8077 24.8767 33.8379 24.7248 33.8379 24.5714C33.8379 24.418 33.8077 24.2661 33.749 24.1244C33.6903 23.9827 33.6043 23.8539 33.4958 23.7454L31.7225 21.9744C32.4855 20.6281 32.6021 20.2757 33.3908 18.7381H45.5008V35.0714H10.9348C11.7624 33.003 13.1913 31.2302 15.0369 29.9824C16.8825 28.7345 19.0599 28.0688 21.2878 28.0714V28.0714ZM44.3341 39.7381H38.3001C37.5628 39.7381 37.2991 39.1337 36.6505 38.5714C36.2057 38.1477 35.615 37.9114 35.0008 37.9114C34.3866 37.9114 33.7959 38.1477 33.3511 38.5714C32.7001 39.1361 32.4365 39.7381 31.7015 39.7381H11.6675C11.358 39.7381 11.0613 39.6152 10.8425 39.3964C10.6237 39.1776 10.5008 38.8808 10.5008 38.5714V37.4047H45.5008V38.5714C45.5008 38.8808 45.3779 39.1776 45.1591 39.3964C44.9403 39.6152 44.6436 39.7381 44.3341 39.7381Z" fill="white"/>
</svg>
