<svg width="80" height="24" viewBox="0 0 80 24" fill="none" xmlns="http://www.w3.org/2000/svg">
<path d="M20.71 19.29L17.31 15.9C18.407 14.5025 19.0022 12.7767 19 11C19 9.41775 18.5308 7.87103 17.6518 6.55544C16.7727 5.23985 15.5233 4.21447 14.0615 3.60897C12.5997 3.00347 10.9911 2.84504 9.43928 3.15372C7.88743 3.4624 6.46197 4.22433 5.34315 5.34315C4.22433 6.46197 3.4624 7.88743 3.15372 9.43928C2.84504 10.9911 3.00347 12.5997 3.60897 14.0615C4.21447 15.5233 5.23985 16.7727 6.55544 17.6518C7.87103 18.5308 9.41775 19 11 19C12.7767 19.0022 14.5025 18.407 15.9 17.31L19.29 20.71C19.383 20.8037 19.4936 20.8781 19.6154 20.9289C19.7373 20.9797 19.868 21.0058 20 21.0058C20.132 21.0058 20.2627 20.9797 20.3846 20.9289C20.5064 20.8781 20.617 20.8037 20.71 20.71C20.8037 20.617 20.8781 20.5064 20.9289 20.3846C20.9797 20.2627 21.0058 20.132 21.0058 20C21.0058 19.868 20.9797 19.7373 20.9289 19.6154C20.8781 19.4936 20.8037 19.383 20.71 19.29V19.29ZM5 11C5 9.81332 5.3519 8.65328 6.01119 7.66658C6.67047 6.67989 7.60755 5.91085 8.7039 5.45673C9.80026 5.0026 11.0067 4.88378 12.1705 5.11529C13.3344 5.3468 14.4035 5.91825 15.2426 6.75736C16.0818 7.59648 16.6532 8.66558 16.8847 9.82946C17.1162 10.9933 16.9974 12.1997 16.5433 13.2961C16.0892 14.3925 15.3201 15.3295 14.3334 15.9888C13.3467 16.6481 12.1867 17 11 17C9.4087 17 7.88258 16.3679 6.75736 15.2426C5.63214 14.1174 5 12.5913 5 11Z" fill="#393D46"/>
<path d="M64.5 19C64.2033 19 63.9133 19.088 63.6666 19.2528C63.42 19.4176 63.2277 19.6519 63.1142 19.926C63.0006 20.2001 62.9709 20.5017 63.0288 20.7926C63.0867 21.0836 63.2296 21.3509 63.4393 21.5607C63.6491 21.7704 63.9164 21.9133 64.2074 21.9712C64.4983 22.0291 64.7999 21.9993 65.074 21.8858C65.3481 21.7723 65.5824 21.58 65.7472 21.3334C65.912 21.0867 66 20.7967 66 20.5C66 20.1022 65.842 19.7206 65.5607 19.4393C65.2794 19.158 64.8978 19 64.5 19ZM75 16H63C62.7348 16 62.4804 15.8946 62.2929 15.7071C62.1054 15.5196 62 15.2652 62 15C62 14.7348 62.1054 14.4804 62.2929 14.2929C62.4804 14.1054 62.7348 14 63 14H71.4912C72.1426 13.9979 72.7758 13.7847 73.2959 13.3925C73.816 13.0002 74.195 12.45 74.376 11.8242L75.9614 6.2749C76.004 6.12607 76.0114 5.9694 75.9831 5.81722C75.9548 5.66505 75.8915 5.52152 75.7983 5.39793C75.7051 5.27435 75.5845 5.17408 75.446 5.10503C75.3075 5.03598 75.1548 5.00003 75 5H62.7391C62.5321 4.41736 62.1504 3.91271 61.6462 3.55481C61.142 3.19692 60.5397 3.00318 59.9214 3H59C58.7348 3 58.4804 3.10536 58.2929 3.29289C58.1054 3.48043 58 3.73478 58 4C58 4.26522 58.1054 4.51957 58.2929 4.70711C58.4804 4.89464 58.7348 5 59 5H59.9214C60.1385 5.00076 60.3495 5.07182 60.5228 5.20253C60.6961 5.33325 60.8224 5.51659 60.8828 5.7251L61.0383 6.26984L61.0386 6.2749L62.6792 12.0171C61.9158 12.0992 61.2129 12.4709 60.7153 13.0557C60.2177 13.6405 59.9632 14.3938 60.0043 15.1606C60.0454 15.9273 60.379 16.6491 60.9363 17.1773C61.4935 17.7055 62.2322 18 63 18H75C75.2652 18 75.5196 17.8946 75.7071 17.7071C75.8946 17.5196 76 17.2652 76 17C76 16.7348 75.8946 16.4804 75.7071 16.2929C75.5196 16.1054 75.2652 16 75 16ZM73.6743 7L72.4531 11.2744C72.3928 11.4831 72.2664 11.6666 72.093 11.7974C71.9196 11.9282 71.7084 11.9993 71.4912 12H64.7544L64.4994 11.1078L63.3264 7H73.6743ZM72.5 19C72.2033 19 71.9133 19.088 71.6666 19.2528C71.42 19.4176 71.2277 19.6519 71.1142 19.926C71.0006 20.2001 70.9709 20.5017 71.0288 20.7926C71.0867 21.0836 71.2296 21.3509 71.4393 21.5607C71.6491 21.7704 71.9164 21.9133 72.2074 21.9712C72.4983 22.0291 72.7999 21.9993 73.074 21.8858C73.3481 21.7723 73.5824 21.58 73.7472 21.3334C73.912 21.0867 74 20.7967 74 20.5C74 20.1022 73.842 19.7206 73.5607 19.4393C73.2794 19.158 72.8978 19 72.5 19Z" fill="#393D46"/>
</svg>
