<svg width="160" height="160" viewBox="0 0 160 160" fill="none" xmlns="http://www.w3.org/2000/svg">
<path d="M79.9997 33.3333C48.2197 33.3333 23.333 47.9999 23.333 66.6666V93.3333C23.333 108.553 40.6197 121.707 65.4597 125.527C66.8598 126.265 68.4168 126.656 69.9997 126.667H89.9997C91.5825 126.656 93.1396 126.265 94.5397 125.527C119.38 121.707 136.666 108.553 136.666 93.3333V66.6666C136.666 47.9999 111.78 33.3333 79.9997 33.3333ZM29.9997 93.3333V82.5866C38.6007 90.9468 49.6006 96.4083 61.4597 98.2066C60.5135 99.7499 60.0085 101.523 59.9997 103.333V116.667C59.9997 117.013 60.0664 117.333 60.0997 117.68C42.3063 113.44 29.9997 103.787 29.9997 93.3333ZM93.333 116.667C93.2985 117.54 92.9362 118.368 92.3184 118.985C91.7006 119.603 90.8727 119.965 89.9997 120H83.333V113.333H86.6664C87.5504 113.333 88.3983 112.982 89.0234 112.357C89.6485 111.732 89.9997 110.884 89.9997 110C89.9997 109.116 89.6485 108.268 89.0234 107.643C88.3983 107.018 87.5504 106.667 86.6664 106.667H83.333V99.9999H89.9997C90.8837 99.9999 91.7316 100.351 92.3567 100.976C92.9818 101.601 93.333 102.449 93.333 103.333V116.667ZM66.6663 116.667V103.333C66.6663 102.449 67.0175 101.601 67.6427 100.976C68.2678 100.351 69.1156 99.9999 69.9997 99.9999H76.6664V106.667C75.7823 106.667 74.9344 107.018 74.3093 107.643C73.6842 108.268 73.333 109.116 73.333 110C73.333 110.884 73.6842 111.732 74.3093 112.357C74.9344 112.982 75.7823 113.333 76.6664 113.333V120H69.9997C69.1257 119.968 68.296 119.607 67.6775 118.989C67.0591 118.37 66.6978 117.541 66.6663 116.667V116.667ZM99.2264 87.4333C99.893 79.3599 91.4264 74.4533 83.333 73.5199V66.8533C99.0064 68.2199 109.586 78.8266 99.2264 87.4333ZM66.6663 86.6666C66.6663 83.5199 72.3664 79.9999 79.9997 79.9999C87.253 79.9999 92.6664 83.5199 92.6664 86.6666C92.6664 89.8133 87.253 93.3333 79.9997 93.3333C74.573 93.3333 66.6663 90.8066 66.6663 86.6666ZM76.6664 73.5533C67.1063 74.5866 59.9997 79.9466 59.9997 86.6533C50.6663 77.6533 62.313 68.1066 76.6664 66.8666V73.5533ZM108.72 85.5533C109.517 83.8077 109.953 81.9185 110 79.9999C110 68.7799 96.8197 59.9999 79.9997 59.9999C63.1797 59.9999 49.9997 68.7799 49.9997 79.9999C50.0438 81.9253 50.4793 83.8216 51.2797 85.5733C49.0613 84.331 47.1786 82.5675 45.7941 80.435C44.4097 78.3026 43.565 75.8652 43.333 73.3333C43.333 62.4933 60.1263 53.3333 79.9997 53.3333C99.873 53.3333 116.666 62.4933 116.666 73.3333C116.434 75.8652 115.59 78.3026 114.205 80.435C112.821 82.5675 110.938 84.331 108.72 85.5733V85.5533ZM130 93.3333C130 103.787 117.693 113.44 99.8997 117.68C99.933 117.34 99.9997 117.013 99.9997 116.667V103.333C99.9909 101.523 99.4859 99.7499 98.5397 98.2066C110.399 96.4083 121.399 90.9468 130 82.5866V93.3333ZM121.38 81.4066C122.654 78.9054 123.323 76.1402 123.333 73.3333C123.333 58.3799 104.3 46.6666 79.9997 46.6666C55.6997 46.6666 36.6663 58.3799 36.6663 73.3333C36.6774 76.1401 37.3464 78.9052 38.6197 81.4066C36.1523 79.7715 34.0924 77.5927 32.5981 75.0375C31.1039 72.4823 30.215 69.6188 29.9997 66.6666C29.9997 52.2133 52.8997 39.9999 79.9997 39.9999C107.1 39.9999 130 52.2133 130 66.6666C129.784 69.6188 128.896 72.4823 127.401 75.0375C125.907 77.5927 123.847 79.7715 121.38 81.4066V81.4066Z" fill="#393D46"/>
</svg>
