<svg width="56" height="56" viewBox="0 0 56 56" fill="none" xmlns="http://www.w3.org/2000/svg">
<path d="M14 39.1837C14.0727 41.7794 14.8076 44.3135 16.135 46.5454C16.329 46.9324 16.6269 47.2579 16.9953 47.4854C17.3637 47.7129 17.7881 47.8333 18.221 47.8334H28.2544C28.7753 47.8337 29.2813 47.6598 29.6919 47.3393C30.1025 47.0188 30.394 46.5701 30.52 46.0647L31.5 42.1447L32.48 46.0647C32.6061 46.5701 32.8976 47.0188 33.3082 47.3393C33.7188 47.6598 34.2248 47.8337 34.7457 47.8334H37.779C38.2129 47.8333 38.6382 47.7124 39.007 47.484C39.3759 47.2557 39.6739 46.929 39.8674 46.5407C41.1955 44.311 41.9298 41.778 42 39.1837C42 32.319 37.3334 30.1724 37.3334 27.5404C37.3334 24.2737 42 23.716 42 19.1264C42 14.1587 37.3334 14.6627 37.3334 11.5757V10.5C37.3334 9.88118 37.0875 9.28769 36.65 8.85011C36.2124 8.41252 35.6189 8.16669 35 8.16669H32.6667C32.0479 8.16669 31.4544 8.41252 31.0168 8.85011C30.5792 9.28769 30.3334 9.88118 30.3334 10.5V11.9C30.3338 12.3548 30.2217 12.8026 30.0072 13.2036C29.7927 13.6046 29.4823 13.9463 29.1037 14.1984C28.6894 14.4742 28.3176 14.809 28 15.1924C27.6825 14.809 27.3107 14.4742 26.8964 14.1984C26.5178 13.9463 26.2074 13.6046 25.9929 13.2036C25.7783 12.8026 25.6663 12.3548 25.6667 11.9V10.5C25.6667 9.88118 25.4209 9.28769 24.9833 8.85011C24.5457 8.41252 23.9522 8.16669 23.3334 8.16669H21C20.3812 8.16669 19.7877 8.41252 19.3501 8.85011C18.9125 9.28769 18.6667 9.88118 18.6667 10.5V11.5757C18.6683 12.0877 18.5266 12.59 18.2578 13.0258C17.989 13.4616 17.6037 13.8136 17.1454 14.042C16.1976 14.5118 15.4005 15.2379 14.8445 16.1378C14.2886 17.0378 13.996 18.0755 14 19.1334C14 23.6694 18.6667 24.3274 18.6667 27.587C18.6667 30.079 14 32.3727 14 39.1837ZM16.3334 19.117C16.3334 15.4444 21 16.4197 21 11.5664V10.5H23.3334V11.9C23.3321 12.7393 23.5388 13.5657 23.935 14.3056C24.3312 15.0454 24.9045 15.6755 25.6037 16.1397C25.9816 16.3913 26.2916 16.7322 26.5061 17.1324C26.7206 17.5325 26.833 17.9794 26.8334 18.4334C26.8334 18.7428 26.9563 19.0395 27.1751 19.2583C27.3939 19.4771 27.6906 19.6 28 19.6C28.3095 19.6 28.6062 19.4771 28.825 19.2583C29.0438 19.0395 29.1667 18.7428 29.1667 18.4334C29.1663 17.9786 29.2783 17.5307 29.4929 17.1298C29.7074 16.7288 30.0178 16.387 30.3964 16.135C31.0949 15.6713 31.6678 15.0419 32.064 14.3029C32.4601 13.564 32.6672 12.7385 32.6667 11.9V10.5H35V11.5757C35 16.4757 39.6667 15.421 39.6667 19.1264C39.6667 22.421 35 22.9484 35 27.58C35 31.675 39.6667 32.7624 39.6667 39.1837C39.5869 41.4154 38.9379 43.5897 37.7814 45.5H34.748L32.634 37.051C32.5467 36.8217 32.3917 36.6243 32.1896 36.485C31.9875 36.3457 31.7478 36.2711 31.5024 36.2711C31.2569 36.2711 31.0173 36.3457 30.8152 36.485C30.6131 36.6243 30.4581 36.8217 30.3707 37.051L28.2544 45.5H18.221C17.0641 43.5897 16.4144 41.4155 16.3334 39.1837C16.3334 32.8277 21 31.696 21 27.5404C21 22.911 16.3334 22.4584 16.3334 19.1334V19.117Z" fill="#393D46"/>
</svg>
