<svg width="56" height="56" viewBox="0 0 56 56" fill="none" xmlns="http://www.w3.org/2000/svg">
<path d="M27.9998 11.6667C16.8768 11.6667 8.1665 16.8 8.1665 23.3334V32.6667C8.1665 37.9937 14.2168 42.5974 22.9108 43.9344C23.4009 44.1928 23.9458 44.3297 24.4998 44.3334H31.4998C32.0538 44.3297 32.5988 44.1928 33.0888 43.9344C41.7828 42.5974 47.8332 37.9937 47.8332 32.6667V23.3334C47.8332 16.8 39.1228 11.6667 27.9998 11.6667ZM10.4998 32.6667V28.9054C13.5102 31.8314 17.3602 33.7429 21.5108 34.3724C21.1797 34.9125 21.0029 35.5331 20.9998 36.1667V40.8334C20.9998 40.9547 21.0232 41.0667 21.0348 41.188C14.8072 39.704 10.4998 36.3254 10.4998 32.6667ZM32.6665 40.8334C32.6544 41.1389 32.5276 41.4287 32.3114 41.6449C32.0952 41.8611 31.8054 41.9879 31.4998 42H29.1665V39.6667H30.3332C30.6426 39.6667 30.9393 39.5438 31.1581 39.325C31.3769 39.1062 31.4998 38.8094 31.4998 38.5C31.4998 38.1906 31.3769 37.8939 31.1581 37.6751C30.9393 37.4563 30.6426 37.3334 30.3332 37.3334H29.1665V35H31.4998C31.8093 35 32.106 35.1229 32.3248 35.3417C32.5436 35.5605 32.6665 35.8573 32.6665 36.1667V40.8334ZM23.3332 40.8334V36.1667C23.3332 35.8573 23.4561 35.5605 23.6749 35.3417C23.8937 35.1229 24.1904 35 24.4998 35H26.8332V37.3334C26.5238 37.3334 26.227 37.4563 26.0082 37.6751C25.7894 37.8939 25.6665 38.1906 25.6665 38.5C25.6665 38.8094 25.7894 39.1062 26.0082 39.325C26.227 39.5438 26.5238 39.6667 26.8332 39.6667V42H24.4998C24.1939 41.989 23.9035 41.8626 23.6871 41.6461C23.4706 41.4297 23.3442 41.1393 23.3332 40.8334V40.8334ZM34.7292 30.6017C34.9625 27.776 31.9992 26.0587 29.1665 25.732V23.3987C34.6522 23.877 38.3552 27.5894 34.7292 30.6017ZM23.3332 30.3334C23.3332 29.232 25.3282 28 27.9998 28C30.5385 28 32.4332 29.232 32.4332 30.3334C32.4332 31.4347 30.5385 32.6667 27.9998 32.6667C26.1005 32.6667 23.3332 31.7824 23.3332 30.3334ZM26.8332 25.7437C23.4872 26.1054 20.9998 27.9814 20.9998 30.3287C17.7332 27.1787 21.8095 23.8374 26.8332 23.4034V25.7437ZM38.0518 29.9437C38.331 29.3328 38.4835 28.6715 38.4998 28C38.4998 24.073 33.8868 21 27.9998 21C22.1128 21 17.4998 24.073 17.4998 28C17.5153 28.6739 17.6677 29.3376 17.9478 29.9507C17.1714 29.5159 16.5125 28.8987 16.0279 28.1523C15.5433 27.4059 15.2477 26.5529 15.1665 25.6667C15.1665 21.8727 21.0442 18.6667 27.9998 18.6667C34.9555 18.6667 40.8332 21.8727 40.8332 25.6667C40.752 26.5529 40.4563 27.4059 39.9718 28.1523C39.4872 28.8987 38.8283 29.5159 38.0518 29.9507V29.9437ZM45.4998 32.6667C45.4998 36.3254 41.1925 39.704 34.9648 41.188C34.9765 41.069 34.9998 40.9547 34.9998 40.8334V36.1667C34.9968 35.5331 34.82 34.9125 34.4888 34.3724C38.6395 33.7429 42.4895 31.8314 45.4998 28.9054V32.6667ZM42.4828 28.4924C42.9287 27.617 43.1629 26.6491 43.1665 25.6667C43.1665 20.433 36.5048 16.3334 27.9998 16.3334C19.4948 16.3334 12.8332 20.433 12.8332 25.6667C12.837 26.6491 13.0712 27.6169 13.5168 28.4924C12.6533 27.9201 11.9323 27.1575 11.4093 26.2632C10.8863 25.3689 10.5752 24.3666 10.4998 23.3334C10.4998 18.2747 18.5148 14 27.9998 14C37.4848 14 45.4998 18.2747 45.4998 23.3334C45.4245 24.3666 45.1134 25.3689 44.5904 26.2632C44.0674 27.1575 43.3464 27.9201 42.4828 28.4924V28.4924Z" fill="#393D46"/>
</svg>
