<svg width="60" height="60" viewBox="0 0 60 60" fill="none" xmlns="http://www.w3.org/2000/svg">
<rect width="60" height="60" fill="white"/>
<path d="M18.7501 29.75C18.7501 29.4185 18.8818 29.1005 19.1162 28.8661C19.3506 28.6317 19.6685 28.5 20.0001 28.5L36.9876 28.5L35.3626 26.8875C35.1272 26.6521 34.995 26.3329 34.995 26C34.995 25.6671 35.1272 25.3479 35.3626 25.1125C35.5979 24.8771 35.9172 24.7449 36.2501 24.7449C36.5829 24.7449 36.9022 24.8771 37.1376 25.1125L40.8876 28.8625C41.061 29.0383 41.1785 29.2615 41.2252 29.504C41.2719 29.7465 41.2458 29.9973 41.1501 30.225C41.0563 30.4533 40.897 30.6487 40.6924 30.7866C40.4877 30.9245 40.2469 30.9988 40.0001 31L20.0001 31C19.6685 31 19.3506 30.8683 19.1162 30.6339C18.8818 30.3994 18.7501 30.0815 18.7501 29.75Z" fill="#393D46"/>
<path d="M35 33.5C34.9991 33.3355 35.0306 33.1724 35.0928 33.0201C35.155 32.8678 35.2467 32.7293 35.3625 32.6125L39.1125 28.8625C39.3479 28.6271 39.6671 28.4949 40 28.4949C40.1648 28.4949 40.328 28.5273 40.4803 28.5904C40.6326 28.6535 40.771 28.7459 40.8875 28.8625C41.0041 28.979 41.0965 29.1174 41.1596 29.2697C41.2227 29.422 41.2551 29.5852 41.2551 29.75C41.2551 30.0829 41.1229 30.4021 40.8875 30.6375L37.1375 34.3875C37.0213 34.5046 36.8831 34.5976 36.7307 34.6611C36.5784 34.7246 36.415 34.7572 36.25 34.7572C36.085 34.7572 35.9216 34.7246 35.7693 34.6611C35.617 34.5976 35.4787 34.5046 35.3625 34.3875C35.2467 34.2707 35.155 34.1322 35.0928 33.9799C35.0306 33.8276 34.9991 33.6645 35 33.5Z" fill="#393D46"/>
</svg>
