<svg width="60" height="60" viewBox="0 0 60 60" fill="none" xmlns="http://www.w3.org/2000/svg">
<rect width="60" height="60" fill="white"/>
<path d="M20.9999 29.4999C20.9999 29.2347 21.1052 28.9804 21.2928 28.7928C21.4803 28.6053 21.7346 28.4999 21.9999 28.4999L35.5899 28.4999L34.2899 27.2099C34.1016 27.0216 33.9958 26.7662 33.9958 26.4999C33.9958 26.2336 34.1016 25.9782 34.2899 25.7899C34.4782 25.6016 34.7336 25.4958 34.9999 25.4958C35.2662 25.4958 35.5216 25.6016 35.7099 25.7899L38.7099 28.7899C38.8486 28.9306 38.9426 29.1091 38.98 29.3031C39.0174 29.4971 38.9964 29.6978 38.9199 29.8799C38.8448 30.0626 38.7174 30.2189 38.5537 30.3292C38.39 30.4396 38.1973 30.499 37.9999 30.4999L21.9999 30.4999C21.7346 30.4999 21.4803 30.3946 21.2928 30.207C21.1052 30.0195 20.9999 29.7652 20.9999 29.4999Z" fill="#393D46"/>
<path d="M33.9998 32.4999C33.9991 32.3683 34.0243 32.2379 34.074 32.116C34.1238 31.9942 34.1971 31.8834 34.2898 31.7899L37.2898 28.7899C37.4781 28.6016 37.7335 28.4958 37.9998 28.4958C38.1317 28.4958 38.2622 28.5218 38.3841 28.5723C38.5059 28.6227 38.6166 28.6967 38.7098 28.7899C38.8031 28.8832 38.877 28.9939 38.9275 29.1157C38.9779 29.2375 39.0039 29.3681 39.0039 29.4999C39.0039 29.7662 38.8981 30.0216 38.7098 30.2099L35.7098 33.2099C35.6169 33.3037 35.5063 33.3781 35.3844 33.4288C35.2625 33.4796 35.1318 33.5057 34.9998 33.5057C34.8678 33.5057 34.7371 33.4796 34.6152 33.4288C34.4934 33.3781 34.3828 33.3037 34.2898 33.2099C34.1971 33.1165 34.1238 33.0057 34.074 32.8838C34.0243 32.762 33.9991 32.6315 33.9998 32.4999Z" fill="#393D46"/>
</svg>
