<svg width="40" height="40" viewBox="0 0 40 40" fill="none" xmlns="http://www.w3.org/2000/svg">
<path d="M35.8682 8.75C35.8682 9.50391 35.8682 10.2617 35.8682 11.0156C35.8682 12.8203 35.8682 14.625 35.8682 16.4258C35.8682 18.6016 35.8682 20.7773 35.8682 22.9531C35.8682 24.8281 35.8682 26.7031 35.8682 28.5742C35.8682 29.457 35.8721 30.3398 35.8682 31.2227C35.8682 31.3047 35.8643 31.3828 35.8525 31.4648C35.8721 31.3281 35.8916 31.1875 35.9072 31.0508C35.8877 31.1914 35.8525 31.3242 35.8018 31.457C35.8525 31.332 35.9072 31.207 35.958 31.082C35.8955 31.2266 35.8213 31.3594 35.7275 31.4805C35.8096 31.375 35.8916 31.2695 35.9736 31.1641C35.8877 31.2695 35.7939 31.3672 35.6846 31.4531C35.79 31.3711 35.8955 31.2891 36.001 31.207C35.876 31.3008 35.7432 31.3789 35.6025 31.4375C35.7275 31.3867 35.8525 31.332 35.9775 31.2812C35.8447 31.332 35.7119 31.3672 35.5713 31.3867C35.708 31.3672 35.8486 31.3477 35.9854 31.332C35.6533 31.3711 35.3057 31.3477 34.9697 31.3477C34.2119 31.3477 33.4502 31.3477 32.6924 31.3477C31.5596 31.3477 30.4268 31.3477 29.2939 31.3477C27.9072 31.3477 26.5205 31.3477 25.1338 31.3477C23.6143 31.3477 22.0908 31.3477 20.5713 31.3477C19.0361 31.3477 17.501 31.3477 15.9619 31.3477C14.5322 31.3477 13.0986 31.3477 11.6689 31.3477C10.4619 31.3477 9.25879 31.3477 8.05176 31.3477C7.18848 31.3477 6.3291 31.3477 5.46582 31.3477C5.06738 31.3477 4.67285 31.3477 4.27441 31.3477C4.18848 31.3477 4.10254 31.3437 4.0166 31.332C4.15332 31.3516 4.29395 31.3711 4.43066 31.3867C4.29004 31.3672 4.15723 31.332 4.02441 31.2812C4.14941 31.332 4.27441 31.3867 4.39941 31.4375C4.25488 31.375 4.12207 31.3008 4.00098 31.207C4.10645 31.2891 4.21191 31.3711 4.31738 31.4531C4.21191 31.3672 4.11426 31.2734 4.02832 31.1641C4.11035 31.2695 4.19238 31.375 4.27441 31.4805C4.18066 31.3555 4.10254 31.2227 4.04395 31.082C4.09473 31.207 4.14941 31.332 4.2002 31.457C4.14941 31.3242 4.11426 31.1914 4.09473 31.0508C4.11426 31.1875 4.13379 31.3281 4.14941 31.4648C4.12207 31.207 4.13379 30.9453 4.13379 30.6875C4.13379 30.1445 4.13379 29.6016 4.13379 29.0586C4.13379 27.2617 4.13379 25.4648 4.13379 23.668C4.13379 21.4883 4.13379 19.3047 4.13379 17.125C4.13379 15.2344 4.13379 13.3437 4.13379 11.4531C4.13379 10.5625 4.12988 9.67187 4.13379 8.77734C4.13379 8.69531 4.1377 8.61719 4.14941 8.53516C4.12988 8.67187 4.11035 8.8125 4.09473 8.94922C4.11426 8.80859 4.14941 8.67578 4.2002 8.54297C4.14941 8.66797 4.09473 8.79297 4.04395 8.91797C4.10645 8.77344 4.18066 8.64062 4.27441 8.51953C4.19238 8.625 4.11035 8.73047 4.02832 8.83594C4.11426 8.73047 4.20801 8.63281 4.31738 8.54687C4.21191 8.62891 4.10645 8.71094 4.00098 8.79297C4.12598 8.69922 4.25879 8.62109 4.39941 8.5625C4.27441 8.61328 4.14941 8.66797 4.02441 8.71875C4.15723 8.66797 4.29004 8.63281 4.43066 8.61328C4.29395 8.63281 4.15332 8.65234 4.0166 8.66797C4.34863 8.62891 4.69629 8.65234 5.03223 8.65234C5.79004 8.65234 6.55176 8.65234 7.30957 8.65234C8.44238 8.65234 9.5752 8.65234 10.708 8.65234C12.0947 8.65234 13.4814 8.65234 14.8682 8.65234C16.3877 8.65234 17.9111 8.65234 19.4307 8.65234C20.9658 8.65234 22.501 8.65234 24.04 8.65234C25.4697 8.65234 26.9033 8.65234 28.333 8.65234C29.54 8.65234 30.7432 8.65234 31.9502 8.65234C32.8135 8.65234 33.6729 8.65234 34.5361 8.65234C34.9346 8.65234 35.3291 8.65234 35.7275 8.65234C35.8135 8.65234 35.8994 8.65625 35.9854 8.66797C35.8486 8.64844 35.708 8.62891 35.5713 8.61328C35.7119 8.63281 35.8447 8.66797 35.9775 8.71875C35.8525 8.66797 35.7275 8.61328 35.6025 8.5625C35.7471 8.625 35.8799 8.69922 36.001 8.79297C35.8955 8.71094 35.79 8.62891 35.6846 8.54687C35.79 8.63281 35.8877 8.72656 35.9736 8.83594C35.8916 8.73047 35.8096 8.625 35.7275 8.51953C35.8213 8.64453 35.8994 8.77734 35.958 8.91797C35.9072 8.79297 35.8525 8.66797 35.8018 8.54297C35.8525 8.67578 35.8877 8.80859 35.9072 8.94922C35.8877 8.8125 35.8682 8.67187 35.8525 8.53516C35.8643 8.60547 35.8682 8.67578 35.8682 8.75C35.876 9.15625 36.0361 9.56641 36.3252 9.85547C36.5947 10.125 37.04 10.332 37.4307 10.3125C38.2666 10.2734 39.0088 9.625 38.9932 8.75C38.9814 7.90625 38.6611 7.12109 38.083 6.50391C37.5088 5.89453 36.7236 5.59375 35.9033 5.52734C35.8057 5.51953 35.7041 5.52344 35.6025 5.52344C35.1689 5.52344 34.7354 5.52344 34.3057 5.52344C33.5088 5.52344 32.708 5.52344 31.9111 5.52344C30.8369 5.52344 29.7588 5.52344 28.6846 5.52344C27.4268 5.52344 26.165 5.52344 24.9072 5.52344C23.54 5.52344 22.1689 5.52344 20.8018 5.52344C19.415 5.52344 18.0322 5.52344 16.6455 5.52344C15.3369 5.52344 14.0283 5.52344 12.7197 5.52344C11.5596 5.52344 10.4033 5.52344 9.24316 5.52344C8.33301 5.52344 7.41895 5.52344 6.50879 5.52344C5.92285 5.52344 5.33691 5.52344 4.75098 5.52344C4.61035 5.52344 4.46973 5.52344 4.3252 5.52344C3.77441 5.52344 3.27051 5.64844 2.77051 5.87891C2.17285 6.15234 1.61816 6.71484 1.34863 7.3125C1.13379 7.78906 1.00879 8.23047 1.00488 8.76172C1.00488 8.87891 1.00488 8.99609 1.00488 9.11719C1.00488 9.76953 1.00488 10.4258 1.00488 11.0781C1.00488 12.1445 1.00488 13.2109 1.00488 14.2812C1.00488 15.5859 1.00488 16.8906 1.00488 18.1953C1.00488 19.5781 1.00488 20.9648 1.00488 22.3477C1.00488 23.6367 1.00488 24.9219 1.00488 26.2109C1.00488 27.2266 1.00488 28.2461 1.00488 29.2617C1.00488 29.8477 1.00488 30.4336 1.00488 31.0234C1.00488 31.1367 1.00098 31.25 1.00879 31.3633C1.06348 32.1875 1.36816 32.9687 1.96973 33.5508C2.57129 34.1328 3.36816 34.4609 4.2041 34.4766C4.44238 34.4805 4.67676 34.4766 4.91504 34.4766C5.54785 34.4766 6.18066 34.4766 6.81738 34.4766C7.77051 34.4766 8.72363 34.4766 9.67676 34.4766C10.8564 34.4766 12.0361 34.4766 13.2158 34.4766C14.5439 34.4766 15.876 34.4766 17.2041 34.4766C18.5869 34.4766 19.9658 34.4766 21.3486 34.4766C22.708 34.4766 24.0674 34.4766 25.4307 34.4766C26.6768 34.4766 27.9189 34.4766 29.165 34.4766C30.2041 34.4766 31.2432 34.4766 32.2822 34.4766C33.0361 34.4766 33.7939 34.4766 34.5479 34.4766C34.9268 34.4766 35.3057 34.4766 35.6885 34.4766C36.2666 34.4766 36.8135 34.3437 37.3252 34.0781C38.3682 33.5391 38.9854 32.3828 38.9971 31.2344C39.001 30.8398 38.9971 30.4492 38.9971 30.0547C38.9971 29.1641 38.9971 28.2773 38.9971 27.3867C38.9971 26.1797 38.9971 24.9687 38.9971 23.7617C38.9971 22.3906 38.9971 21.0234 38.9971 19.6523C38.9971 18.2969 38.9971 16.9414 38.9971 15.5859C38.9971 14.418 38.9971 13.2539 38.9971 12.0859C38.9971 11.2695 38.9971 10.4492 38.9971 9.63281C38.9971 9.33984 38.9971 9.04687 38.9971 8.75C38.9971 7.93359 38.2783 7.14844 37.4346 7.1875C36.5869 7.22656 35.8682 7.875 35.8682 8.75Z" fill="#393D46"/>
<path d="M35.8672 13C35.8672 14.5664 35.8672 16.1328 35.8672 17.6992C35.8672 17.918 35.8672 18.1367 35.8672 18.3555C36.3867 17.8359 36.9102 17.3125 37.4297 16.793C37.1172 16.793 36.8047 16.793 36.4922 16.793C35.6484 16.793 34.8047 16.793 33.957 16.793C32.707 16.793 31.4609 16.793 30.2109 16.793C28.6836 16.793 27.1523 16.793 25.625 16.793C23.957 16.793 22.2891 16.793 20.6211 16.793C18.9297 16.793 17.2383 16.793 15.5508 16.793C13.9805 16.793 12.4102 16.793 10.8398 16.793C9.50781 16.793 8.17578 16.793 6.84375 16.793C5.89063 16.793 4.9375 16.793 3.98047 16.793C3.52734 16.793 3.07422 16.7852 2.625 16.793C2.60547 16.793 2.58594 16.793 2.56641 16.793C3.08594 17.3125 3.60937 17.8359 4.12891 18.3555C4.12891 16.7891 4.12891 15.2227 4.12891 13.6562C4.12891 13.4375 4.12891 13.2187 4.12891 13C3.60937 13.5195 3.08594 14.043 2.56641 14.5625C2.87891 14.5625 3.19141 14.5625 3.50391 14.5625C4.34766 14.5625 5.19141 14.5625 6.03906 14.5625C7.28906 14.5625 8.53516 14.5625 9.78516 14.5625C11.3125 14.5625 12.8437 14.5625 14.3711 14.5625C16.0391 14.5625 17.707 14.5625 19.375 14.5625C21.0664 14.5625 22.7578 14.5625 24.4453 14.5625C26.0156 14.5625 27.5859 14.5625 29.1563 14.5625C30.4883 14.5625 31.8203 14.5625 33.1523 14.5625C34.1055 14.5625 35.0586 14.5625 36.0156 14.5625C36.4687 14.5625 36.9219 14.5664 37.3711 14.5625C37.3906 14.5625 37.4102 14.5625 37.4297 14.5625C38.2461 14.5625 39.0312 13.8437 38.9922 13C38.9531 12.1523 38.3047 11.4375 37.4297 11.4375C37.1172 11.4375 36.8047 11.4375 36.4922 11.4375C35.6484 11.4375 34.8047 11.4375 33.957 11.4375C32.707 11.4375 31.4609 11.4375 30.2109 11.4375C28.6836 11.4375 27.1523 11.4375 25.625 11.4375C23.957 11.4375 22.2891 11.4375 20.6211 11.4375C18.9297 11.4375 17.2383 11.4375 15.5508 11.4375C13.9805 11.4375 12.4102 11.4375 10.8398 11.4375C9.50781 11.4375 8.17578 11.4375 6.84375 11.4375C5.89063 11.4375 4.9375 11.4375 3.98047 11.4375C3.52734 11.4375 3.07422 11.4336 2.625 11.4375C2.60547 11.4375 2.58594 11.4375 2.56641 11.4375C1.72266 11.4375 1.00391 12.1523 1.00391 13C1.00391 14.5664 1.00391 16.1328 1.00391 17.6992C1.00391 17.918 1.00391 18.1367 1.00391 18.3555C1.00391 19.1992 1.71875 19.918 2.56641 19.918C2.87891 19.918 3.19141 19.918 3.50391 19.918C4.34766 19.918 5.19141 19.918 6.03906 19.918C7.28906 19.918 8.53516 19.918 9.78516 19.918C11.3125 19.918 12.8437 19.918 14.3711 19.918C16.0391 19.918 17.707 19.918 19.375 19.918C21.0664 19.918 22.7578 19.918 24.4453 19.918C26.0156 19.918 27.5859 19.918 29.1563 19.918C30.4883 19.918 31.8203 19.918 33.1523 19.918C34.1055 19.918 35.0586 19.918 36.0156 19.918C36.4687 19.918 36.9219 19.9219 37.3711 19.918C37.3906 19.918 37.4102 19.918 37.4297 19.918C38.2734 19.918 38.9922 19.2031 38.9922 18.3555C38.9922 16.7891 38.9922 15.2227 38.9922 13.6562C38.9922 13.4375 38.9922 13.2187 38.9922 13C38.9922 12.1836 38.2734 11.3984 37.4297 11.4375C36.5859 11.4727 35.8672 12.1211 35.8672 13ZM8.22656 27.0547C9.31641 27.0547 10.4062 27.0547 11.4961 27.0547C13.2266 27.0547 14.957 27.0547 16.6875 27.0547C17.0859 27.0547 17.4844 27.0547 17.8789 27.0547C18.6953 27.0547 19.4805 26.3359 19.4414 25.4922C19.4023 24.6445 18.7539 23.9297 17.8789 23.9297C16.7891 23.9297 15.6992 23.9297 14.6094 23.9297C12.8789 23.9297 11.1484 23.9297 9.41797 23.9297C9.01953 23.9297 8.62109 23.9297 8.22656 23.9297C7.41016 23.9297 6.625 24.6484 6.66406 25.4922C6.69922 26.3398 7.34766 27.0547 8.22656 27.0547Z" fill="#393D46"/>
</svg>
