<svg width="120" height="120" viewBox="0 0 120 120" fill="none" xmlns="http://www.w3.org/2000/svg">
<circle cx="60" cy="60" r="59" stroke="#9F9F9F" stroke-width="2"/>
<path d="M85.3876 42C85.3876 43.2062 85.3876 44.4188 85.3876 45.625C85.3876 48.5125 85.3876 51.4 85.3876 54.2812C85.3876 57.7625 85.3876 61.2437 85.3876 64.725C85.3876 67.725 85.3876 70.725 85.3876 73.7188C85.3876 75.1313 85.3938 76.5437 85.3876 77.9562C85.3876 78.0875 85.3813 78.2125 85.3625 78.3438C85.3938 78.125 85.4251 77.9 85.4501 77.6813C85.4188 77.9063 85.3625 78.1187 85.2813 78.3312C85.3625 78.1312 85.45 77.9313 85.5313 77.7313C85.4313 77.9625 85.3125 78.175 85.1625 78.3688C85.2938 78.2 85.4251 78.0312 85.5563 77.8625C85.4188 78.0312 85.2688 78.1875 85.0938 78.325C85.2625 78.1938 85.4313 78.0625 85.6 77.9313C85.4 78.0813 85.1876 78.2062 84.9626 78.3C85.1626 78.2187 85.3625 78.1312 85.5625 78.05C85.35 78.1312 85.1375 78.1875 84.9125 78.2188C85.1313 78.1875 85.3563 78.1562 85.5751 78.1312C85.0438 78.1937 84.4876 78.1562 83.9501 78.1562C82.7376 78.1562 81.5188 78.1562 80.3063 78.1562C78.4938 78.1562 76.6813 78.1562 74.8688 78.1562C72.6501 78.1562 70.4313 78.1562 68.2126 78.1562C65.7813 78.1562 63.3438 78.1562 60.9125 78.1562C58.4563 78.1562 56.0001 78.1562 53.5375 78.1562C51.2501 78.1562 48.9563 78.1562 46.6688 78.1562C44.7376 78.1562 42.8125 78.1562 40.8813 78.1562C39.5 78.1562 38.125 78.1562 36.7438 78.1562C36.1063 78.1562 35.475 78.1562 34.8375 78.1562C34.7 78.1562 34.5625 78.15 34.425 78.1312C34.6438 78.1625 34.8688 78.1937 35.0875 78.2188C34.8625 78.1875 34.65 78.1312 34.4375 78.05C34.6375 78.1312 34.8375 78.2187 35.0375 78.3C34.8063 78.2 34.5938 78.0813 34.4 77.9313C34.5688 78.0625 34.7375 78.1938 34.9063 78.325C34.7375 78.1875 34.5813 78.0375 34.4438 77.8625C34.575 78.0312 34.7063 78.2 34.8375 78.3688C34.6875 78.1688 34.5625 77.9563 34.4688 77.7313C34.55 77.9313 34.6375 78.1312 34.7188 78.3312C34.6375 78.1187 34.5813 77.9063 34.55 77.6813C34.5813 77.9 34.6125 78.125 34.6375 78.3438C34.5938 77.9313 34.6125 77.5125 34.6125 77.1C34.6125 76.2312 34.6125 75.3625 34.6125 74.4938C34.6125 71.6188 34.6125 68.7438 34.6125 65.8688C34.6125 62.3813 34.6125 58.8875 34.6125 55.4C34.6125 52.375 34.6125 49.35 34.6125 46.325C34.6125 44.9 34.6063 43.475 34.6125 42.0437C34.6125 41.9125 34.6188 41.7875 34.6375 41.6562C34.6063 41.875 34.575 42.1 34.55 42.3188C34.5813 42.0938 34.6375 41.8812 34.7188 41.6687C34.6375 41.8687 34.55 42.0688 34.4688 42.2688C34.5688 42.0375 34.6875 41.825 34.8375 41.6313C34.7063 41.8 34.575 41.9687 34.4438 42.1375C34.5813 41.9687 34.7313 41.8125 34.9063 41.675C34.7375 41.8063 34.5688 41.9375 34.4 42.0688C34.6 41.9188 34.8125 41.7937 35.0375 41.7C34.8375 41.7812 34.6375 41.8687 34.4375 41.95C34.65 41.8687 34.8625 41.8125 35.0875 41.7812C34.8688 41.8125 34.6438 41.8437 34.425 41.8687C34.9563 41.8062 35.5125 41.8438 36.05 41.8438C37.2625 41.8438 38.4813 41.8438 39.6938 41.8438C41.5063 41.8438 43.3188 41.8438 45.1313 41.8438C47.35 41.8438 49.5688 41.8438 51.7875 41.8438C54.2188 41.8438 56.6563 41.8438 59.0875 41.8438C61.5438 41.8438 64.0001 41.8438 66.4626 41.8438C68.7501 41.8438 71.0438 41.8438 73.3313 41.8438C75.2625 41.8438 77.1876 41.8438 79.1188 41.8438C80.5001 41.8438 81.875 41.8438 83.2563 41.8438C83.8938 41.8438 84.525 41.8438 85.1625 41.8438C85.3 41.8438 85.4376 41.85 85.5751 41.8687C85.3563 41.8375 85.1313 41.8063 84.9125 41.7812C85.1375 41.8125 85.35 41.8687 85.5625 41.95C85.3625 41.8687 85.1626 41.7812 84.9626 41.7C85.1938 41.8 85.4063 41.9188 85.6 42.0688C85.4313 41.9375 85.2625 41.8063 85.0938 41.675C85.2625 41.8125 85.4188 41.9625 85.5563 42.1375C85.4251 41.9687 85.2938 41.8 85.1625 41.6313C85.3125 41.8313 85.4375 42.0438 85.5313 42.2688C85.45 42.0688 85.3625 41.8687 85.2813 41.6687C85.3625 41.8812 85.4188 42.0938 85.4501 42.3188C85.4188 42.1 85.3875 41.875 85.3625 41.6562C85.3813 41.7687 85.3876 41.8813 85.3876 42C85.4001 42.65 85.6563 43.3063 86.1188 43.7688C86.5501 44.2 87.2626 44.5312 87.8876 44.5C89.2251 44.4375 90.4126 43.4 90.3876 42C90.3688 40.65 89.8563 39.3938 88.9313 38.4063C88.0126 37.4313 86.7563 36.95 85.4438 36.8438C85.2875 36.8313 85.1251 36.8375 84.9626 36.8375C84.2688 36.8375 83.5751 36.8375 82.8876 36.8375C81.6126 36.8375 80.3313 36.8375 79.0563 36.8375C77.3376 36.8375 75.6125 36.8375 73.8938 36.8375C71.8813 36.8375 69.8625 36.8375 67.85 36.8375C65.6625 36.8375 63.4688 36.8375 61.2813 36.8375C59.0625 36.8375 56.85 36.8375 54.6313 36.8375C52.5375 36.8375 50.4438 36.8375 48.35 36.8375C46.4938 36.8375 44.6438 36.8375 42.7875 36.8375C41.3313 36.8375 39.8688 36.8375 38.4125 36.8375C37.475 36.8375 36.5375 36.8375 35.6 36.8375C35.375 36.8375 35.15 36.8375 34.9188 36.8375C34.0375 36.8375 33.2313 37.0375 32.4313 37.4063C31.475 37.8438 30.5875 38.7438 30.1563 39.7C29.8125 40.4625 29.6125 41.1688 29.6063 42.0188C29.6063 42.2063 29.6063 42.3937 29.6063 42.5875C29.6063 43.6312 29.6063 44.6813 29.6063 45.725C29.6063 47.4313 29.6063 49.1375 29.6063 50.85C29.6063 52.9375 29.6063 55.025 29.6063 57.1125C29.6063 59.325 29.6063 61.5437 29.6063 63.7562C29.6063 65.8187 29.6063 67.875 29.6063 69.9375C29.6063 71.5625 29.6063 73.1937 29.6063 74.8187C29.6063 75.7562 29.6063 76.6938 29.6063 77.6375C29.6063 77.8188 29.6 78 29.6125 78.1813C29.7 79.5 30.1875 80.75 31.15 81.6813C32.1125 82.6125 33.3875 83.1375 34.725 83.1625C35.1063 83.1687 35.4813 83.1625 35.8625 83.1625C36.875 83.1625 37.8875 83.1625 38.9063 83.1625C40.4313 83.1625 41.9563 83.1625 43.4813 83.1625C45.3688 83.1625 47.2563 83.1625 49.1438 83.1625C51.2688 83.1625 53.4 83.1625 55.525 83.1625C57.7375 83.1625 59.9438 83.1625 62.1563 83.1625C64.3313 83.1625 66.5063 83.1625 68.6875 83.1625C70.6813 83.1625 72.6688 83.1625 74.6625 83.1625C76.325 83.1625 77.9876 83.1625 79.6501 83.1625C80.8563 83.1625 82.0688 83.1625 83.2751 83.1625C83.8813 83.1625 84.4875 83.1625 85.1 83.1625C86.025 83.1625 86.9 82.95 87.7188 82.525C89.3875 81.6625 90.375 79.8125 90.3938 77.975C90.4 77.3437 90.3938 76.7188 90.3938 76.0875C90.3938 74.6625 90.3938 73.2437 90.3938 71.8187C90.3938 69.8875 90.3938 67.95 90.3938 66.0187C90.3938 63.825 90.3938 61.6375 90.3938 59.4438C90.3938 57.275 90.3938 55.1063 90.3938 52.9375C90.3938 51.0688 90.3938 49.2062 90.3938 47.3375C90.3938 46.0312 90.3938 44.7188 90.3938 43.4125C90.3938 42.9438 90.3938 42.475 90.3938 42C90.3938 40.6938 89.2438 39.4375 87.8938 39.5C86.5375 39.5625 85.3876 40.6 85.3876 42Z" fill="#393D46"/>
<path d="M85.3875 48.8001C85.3875 51.3064 85.3875 53.8126 85.3875 56.3189C85.3875 56.6689 85.3875 57.0189 85.3875 57.3689C86.2187 56.5376 87.0562 55.7001 87.8875 54.8689C87.3875 54.8689 86.8875 54.8689 86.3875 54.8689C85.0375 54.8689 83.6874 54.8689 82.3312 54.8689C80.3312 54.8689 78.3375 54.8689 76.3375 54.8689C73.8937 54.8689 71.4437 54.8689 69 54.8689C66.3312 54.8689 63.6625 54.8689 60.9937 54.8689C58.2875 54.8689 55.5812 54.8689 52.8812 54.8689C50.3687 54.8689 47.8562 54.8689 45.3437 54.8689C43.2125 54.8689 41.0812 54.8689 38.95 54.8689C37.425 54.8689 35.9 54.8689 34.3687 54.8689C33.6437 54.8689 32.9187 54.8564 32.2 54.8689C32.1687 54.8689 32.1375 54.8689 32.1062 54.8689C32.9375 55.7001 33.775 56.5376 34.6062 57.3689C34.6062 54.8626 34.6062 52.3564 34.6062 49.8501C34.6062 49.5001 34.6062 49.1501 34.6062 48.8001C33.775 49.6314 32.9375 50.4689 32.1062 51.3001C32.6062 51.3001 33.1062 51.3001 33.6062 51.3001C34.9562 51.3001 36.3062 51.3001 37.6625 51.3001C39.6625 51.3001 41.6562 51.3001 43.6562 51.3001C46.1 51.3001 48.55 51.3001 50.9937 51.3001C53.6625 51.3001 56.3312 51.3001 59 51.3001C61.7062 51.3001 64.4124 51.3001 67.1124 51.3001C69.6249 51.3001 72.1375 51.3001 74.65 51.3001C76.7812 51.3001 78.9125 51.3001 81.0437 51.3001C82.5687 51.3001 84.0937 51.3001 85.625 51.3001C86.35 51.3001 87.075 51.3064 87.7937 51.3001C87.825 51.3001 87.8562 51.3001 87.8875 51.3001C89.1937 51.3001 90.45 50.1501 90.3875 48.8001C90.325 47.4439 89.2875 46.3001 87.8875 46.3001C87.3875 46.3001 86.8875 46.3001 86.3875 46.3001C85.0375 46.3001 83.6874 46.3001 82.3312 46.3001C80.3312 46.3001 78.3375 46.3001 76.3375 46.3001C73.8937 46.3001 71.4437 46.3001 69 46.3001C66.3312 46.3001 63.6625 46.3001 60.9937 46.3001C58.2875 46.3001 55.5812 46.3001 52.8812 46.3001C50.3687 46.3001 47.8562 46.3001 45.3437 46.3001C43.2125 46.3001 41.0812 46.3001 38.95 46.3001C37.425 46.3001 35.9 46.3001 34.3687 46.3001C33.6437 46.3001 32.9187 46.2939 32.2 46.3001C32.1687 46.3001 32.1375 46.3001 32.1062 46.3001C30.7562 46.3001 29.6062 47.4439 29.6062 48.8001C29.6062 51.3064 29.6062 53.8126 29.6062 56.3189C29.6062 56.6689 29.6062 57.0189 29.6062 57.3689C29.6062 58.7189 30.75 59.8689 32.1062 59.8689C32.6062 59.8689 33.1062 59.8689 33.6062 59.8689C34.9562 59.8689 36.3062 59.8689 37.6625 59.8689C39.6625 59.8689 41.6562 59.8689 43.6562 59.8689C46.1 59.8689 48.55 59.8689 50.9937 59.8689C53.6625 59.8689 56.3312 59.8689 59 59.8689C61.7062 59.8689 64.4124 59.8689 67.1124 59.8689C69.6249 59.8689 72.1375 59.8689 74.65 59.8689C76.7812 59.8689 78.9125 59.8689 81.0437 59.8689C82.5687 59.8689 84.0937 59.8689 85.625 59.8689C86.35 59.8689 87.075 59.8751 87.7937 59.8689C87.825 59.8689 87.8562 59.8689 87.8875 59.8689C89.2375 59.8689 90.3875 58.7251 90.3875 57.3689C90.3875 54.8626 90.3875 52.3564 90.3875 49.8501C90.3875 49.5001 90.3875 49.1501 90.3875 48.8001C90.3875 47.4939 89.2375 46.2376 87.8875 46.3001C86.5375 46.3564 85.3875 47.3939 85.3875 48.8001ZM41.1625 71.2876C42.9062 71.2876 44.6499 71.2876 46.3937 71.2876C49.1624 71.2876 51.9312 71.2876 54.7 71.2876C55.3375 71.2876 55.975 71.2876 56.6062 71.2876C57.9125 71.2876 59.1687 70.1376 59.1062 68.7876C59.0437 67.4314 58.0062 66.2876 56.6062 66.2876C54.8625 66.2876 53.1187 66.2876 51.375 66.2876C48.6062 66.2876 45.8375 66.2876 43.0687 66.2876C42.4312 66.2876 41.7937 66.2876 41.1625 66.2876C39.8562 66.2876 38.6 67.4376 38.6625 68.7876C38.7187 70.1439 39.7562 71.2876 41.1625 71.2876Z" fill="#393D46"/>
</svg>
