<svg width="160" height="160" viewBox="0 0 160 160" fill="none" xmlns="http://www.w3.org/2000/svg">
<path d="M103.333 23.3333H56.2663C54.5675 23.3301 52.9315 23.9754 51.6925 25.1376C50.4535 26.2998 49.7049 27.8912 49.5996 29.5867L43.3463 129.587C43.2888 130.497 43.4187 131.409 43.7279 132.267C44.0371 133.125 44.5191 133.91 45.1439 134.575C45.7688 135.239 46.5233 135.768 47.3608 136.129C48.1983 136.49 49.1009 136.675 50.0129 136.673H63.6462C65.2243 136.673 66.7509 136.112 67.9545 135.092C69.1582 134.071 69.9608 132.657 70.2196 131.1L79.7996 73.6133L89.3796 131.1C89.6398 132.655 90.443 134.068 91.6465 135.087C92.85 136.107 94.3758 136.666 95.9529 136.667H109.586C110.498 136.668 111.4 136.483 112.237 136.123C113.074 135.762 113.828 135.234 114.453 134.57C115.077 133.907 115.56 133.122 115.869 132.265C116.179 131.408 116.309 130.496 116.253 129.587L110 29.5867C109.894 27.8912 109.146 26.2998 107.907 25.1376C106.668 23.9754 105.032 23.3301 103.333 23.3333ZM103.333 30L104.066 41.74C101.799 40.7291 99.8735 39.0816 98.5244 36.9976C97.1753 34.9135 96.4603 32.4826 96.4662 30H103.333ZM63.1329 30C63.138 32.4824 62.4227 34.913 61.0737 36.9969C59.7247 39.0808 57.7999 40.7284 55.5329 41.74L56.2663 30H63.1329ZM95.9529 130L83.0862 52.7867C82.9549 52.01 82.5528 51.3049 81.9511 50.7965C81.3495 50.2881 80.5873 50.0091 79.7996 50.0091C79.0119 50.0091 78.2497 50.2881 77.648 50.7965C77.0464 51.3049 76.6443 52.01 76.5129 52.7867L63.6462 130H50.0129L55.0529 49.4333C59.1894 48.0679 62.8139 45.479 65.447 42.0089C68.0802 38.5389 69.598 34.3513 69.7996 30H76.4662V40C76.4662 40.884 76.8174 41.7319 77.4426 42.357C78.0677 42.9821 78.9155 43.3333 79.7996 43.3333C80.6836 43.3333 81.5315 42.9821 82.1566 42.357C82.7817 41.7319 83.1329 40.884 83.1329 40V30H89.7996C90.0012 34.3513 91.519 38.5389 94.1521 42.0089C96.7853 45.479 100.41 48.0679 104.546 49.4333L109.586 130H95.9529Z" fill="#393D46"/>
</svg>
