<svg width="160" height="160" viewBox="0 0 160 160" fill="none" xmlns="http://www.w3.org/2000/svg">
<path d="M40.0001 111.953C40.2076 119.37 42.3074 126.61 46.1001 132.987C46.6543 134.093 47.5053 135.023 48.5579 135.673C49.6104 136.322 50.8231 136.667 52.0601 136.667H80.7268C82.215 136.668 83.6608 136.171 84.8339 135.255C86.007 134.339 86.84 133.057 87.2001 131.613L90.0001 120.413L92.8001 131.613C93.1603 133.057 93.9932 134.339 95.1663 135.255C96.3394 136.171 97.7852 136.668 99.2734 136.667H107.94C109.18 136.667 110.395 136.321 111.449 135.669C112.503 135.016 113.354 134.083 113.907 132.973C117.702 126.603 119.799 119.366 120 111.953C120 92.34 106.667 86.2067 106.667 78.6867C106.667 69.3534 120 67.76 120 54.6467C120 40.4534 106.667 41.8934 106.667 33.0734V30C106.667 28.2319 105.964 26.5362 104.714 25.286C103.464 24.0358 101.768 23.3334 100 23.3334H93.3334C91.5653 23.3334 89.8696 24.0358 88.6194 25.286C87.3692 26.5362 86.6668 28.2319 86.6668 30V34C86.668 35.2994 86.3478 36.5789 85.7348 37.7246C85.1219 38.8703 84.2351 39.8467 83.1534 40.5667C81.9696 41.3547 80.9073 42.3115 80.0001 43.4067C79.0929 42.3115 78.0306 41.3547 76.8468 40.5667C75.7652 39.8467 74.8784 38.8703 74.2654 37.7246C73.6524 36.5789 73.3323 35.2994 73.3334 34V30C73.3334 28.2319 72.6311 26.5362 71.3808 25.286C70.1306 24.0358 68.4349 23.3334 66.6668 23.3334H60.0001C58.232 23.3334 56.5363 24.0358 55.2861 25.286C54.0358 26.5362 53.3334 28.2319 53.3334 30V33.0734C53.3379 34.5364 52.9332 35.9715 52.1652 37.2167C51.3971 38.4618 50.2962 39.4675 48.9868 40.12C46.2788 41.4623 44.0014 43.5368 42.4129 46.1081C40.8245 48.6793 39.9886 51.6444 40.0001 54.6667C40.0001 67.6267 53.3334 69.5067 53.3334 78.82C53.3334 85.94 40.0001 92.4934 40.0001 111.953ZM46.6668 54.62C46.6668 44.1267 60.0001 46.9134 60.0001 33.0467V30H66.6668V34C66.6632 36.3979 67.2538 38.7592 68.3857 40.873C69.5177 42.9868 71.1557 44.7873 73.1534 46.1134C74.2332 46.8322 75.1188 47.8064 75.7317 48.9496C76.3446 50.0928 76.6658 51.3696 76.6668 52.6667C76.6668 53.5508 77.018 54.3986 77.6431 55.0237C78.2682 55.6489 79.1161 56 80.0001 56C80.8842 56 81.732 55.6489 82.3571 55.0237C82.9823 54.3986 83.3334 53.5508 83.3334 52.6667C83.3323 51.3673 83.6524 50.0878 84.2654 48.9421C84.8784 47.7964 85.7652 46.8201 86.8468 46.1C88.8426 44.7752 90.4795 42.9769 91.6113 40.8656C92.7432 38.7542 93.3348 36.3956 93.3334 34V30H100V33.0734C100 47.0734 113.333 44.06 113.333 54.6467C113.333 64.06 100 65.5667 100 78.8C100 90.5 113.333 93.6067 113.333 111.953C113.106 118.33 111.251 124.542 107.947 130H99.2801L93.2401 105.86C92.9905 105.205 92.5476 104.641 91.9702 104.243C91.3927 103.845 90.708 103.632 90.0068 103.632C89.3055 103.632 88.6208 103.845 88.0434 104.243C87.466 104.641 87.0231 105.205 86.7734 105.86L80.7268 130H52.0601C48.7547 124.542 46.8982 118.33 46.6668 111.953C46.6668 93.7934 60.0001 90.5601 60.0001 78.6867C60.0001 65.46 46.6668 64.1667 46.6668 54.6667V54.62Z" fill="#393D46"/>
</svg>
