<svg width="160" height="160" viewBox="0 0 160 160" fill="none" xmlns="http://www.w3.org/2000/svg">
<path d="M56.9529 130H103.62C105.388 130 107.083 129.298 108.334 128.047C109.584 126.797 110.286 125.101 110.286 123.333V68.0467L115.573 73.3334C116.842 74.5469 118.53 75.2242 120.286 75.2242C122.042 75.2242 123.73 74.5469 125 73.3334L133.62 64.7134C134.869 63.4632 135.571 61.7678 135.571 60C135.571 58.2323 134.869 56.5369 133.62 55.2867L111.26 32.9267C110.334 31.9961 109.232 31.2583 108.019 30.7559C106.806 30.2536 105.506 29.9967 104.193 30H56.3796C55.0667 29.9967 53.7662 30.2536 52.5532 30.7559C51.3403 31.2583 50.2389 31.9961 49.3129 32.9267L26.9529 55.2867C25.7031 56.5369 25.001 58.2323 25.001 60C25.001 61.7678 25.7031 63.4632 26.9529 64.7134L35.5729 73.3334C36.842 74.5469 38.5303 75.2242 40.2862 75.2242C42.0422 75.2242 43.7304 74.5469 44.9996 73.3334L50.2862 68.0467V123.333C50.2862 125.101 50.9886 126.797 52.2388 128.047C53.4891 129.298 55.1848 130 56.9529 130ZM89.6729 36.6667C88.9941 38.6152 87.7257 40.3041 86.0437 41.4993C84.3618 42.6944 82.3496 43.3365 80.2862 43.3365C78.2229 43.3365 76.2107 42.6944 74.5287 41.4993C72.8467 40.3041 71.5784 38.6152 70.8996 36.6667H89.6729ZM40.2862 68.62L31.6662 60L54.0262 37.64C54.6509 37.0169 55.4972 36.6669 56.3796 36.6667H63.9596C64.7246 40.4343 66.7687 43.8216 69.7454 46.2546C72.7221 48.6876 76.4484 50.0167 80.2929 50.0167C84.1374 50.0167 87.8637 48.6876 90.8404 46.2546C93.8171 43.8216 95.8612 40.4343 96.6262 36.6667H104.206C105.089 36.6669 105.935 37.0169 106.56 37.64L128.906 60L120.286 68.62L109.313 57.64C108.847 57.1726 108.252 56.8542 107.605 56.7251C106.957 56.596 106.286 56.662 105.676 56.9148C105.067 57.1676 104.546 57.5957 104.179 58.145C103.813 58.6943 103.618 59.3399 103.62 60V123.333H56.9529V60C56.9541 59.3399 56.7592 58.6943 56.393 58.145C56.0268 57.5957 55.5058 57.1676 54.896 56.9148C54.2862 56.662 53.615 56.596 52.9676 56.7251C52.3202 56.8542 51.7258 57.1726 51.2596 57.64L40.2862 68.62Z" fill="#393D46"/>
</svg>
