<svg width="40" height="40" viewBox="0 0 40 40" fill="none" xmlns="http://www.w3.org/2000/svg">
<rect width="40" height="40" fill="#393D46"/>
<path d="M3.33335 18.3333V8.33332C3.33335 7.89129 3.50895 7.46737 3.82151 7.15481C4.13407 6.84225 4.55799 6.66665 5.00002 6.66665H30.9834L30.5 6.18332C30.227 5.86448 30.0843 5.45436 30.1005 5.0349C30.1167 4.61544 30.2906 4.21754 30.5874 3.92071C30.8842 3.62389 31.2821 3.45 31.7016 3.4338C32.1211 3.4176 32.5312 3.56027 32.85 3.83332L36.1833 7.16665C36.4938 7.47892 36.668 7.90134 36.668 8.34165C36.668 8.78196 36.4938 9.20438 36.1833 9.51665V9.51665L32.85 12.85C32.5312 13.123 32.1211 13.2657 31.7016 13.2495C31.2821 13.2333 30.8842 13.0594 30.5874 12.7626C30.2906 12.4658 30.1167 12.0679 30.1005 11.6484C30.0843 11.2289 30.227 10.8188 30.5 10.5L30.9834 9.99998H6.66669V18.3333C6.66669 18.7753 6.49109 19.1993 6.17853 19.5118C5.86597 19.8244 5.44205 20 5.00002 20C4.55799 20 4.13407 19.8244 3.82151 19.5118C3.50895 19.1993 3.33335 18.7753 3.33335 18.3333V18.3333ZM35 20C34.558 20 34.1341 20.1756 33.8215 20.4881C33.5089 20.8007 33.3334 21.2246 33.3334 21.6667V30H9.01669L9.50002 29.5167C9.77306 29.1978 9.91574 28.7877 9.89954 28.3682C9.88334 27.9488 9.70945 27.5509 9.41262 27.254C9.1158 26.9572 8.7179 26.7833 8.29844 26.7671C7.87898 26.7509 7.46885 26.8936 7.15002 27.1667L3.81669 30.5C3.50627 30.8123 3.33203 31.2347 3.33203 31.675C3.33203 32.1153 3.50627 32.5377 3.81669 32.85V32.85L7.15002 36.1833C7.46885 36.4564 7.87898 36.599 8.29844 36.5828C8.7179 36.5666 9.1158 36.3927 9.41262 36.0959C9.70945 35.7991 9.88334 35.4012 9.89954 34.9817C9.91574 34.5623 9.77306 34.1522 9.50002 33.8333L9.01669 33.3333H35C35.442 33.3333 35.866 33.1577 36.1785 32.8452C36.4911 32.5326 36.6667 32.1087 36.6667 31.6667V21.6667C36.6667 21.2246 36.4911 20.8007 36.1785 20.4881C35.866 20.1756 35.442 20 35 20Z" fill="white"/>
</svg>
