<svg width="56" height="56" viewBox="0 0 56 56" fill="none" xmlns="http://www.w3.org/2000/svg">
<path d="M19.9332 45.5H36.2665C36.8853 45.5 37.4788 45.2542 37.9164 44.8166C38.354 44.379 38.5998 43.7855 38.5998 43.1667V23.8163L40.4502 25.6667C40.8944 26.0914 41.4853 26.3285 42.0998 26.3285C42.7144 26.3285 43.3053 26.0914 43.7495 25.6667L46.7665 22.6497C47.2039 22.2121 47.4497 21.6187 47.4497 21C47.4497 20.3813 47.2039 19.7879 46.7665 19.3503L38.9405 11.5243C38.6164 11.1986 38.2309 10.9404 37.8064 10.7646C37.3818 10.5888 36.9267 10.4988 36.4672 10.5H19.7325C19.273 10.4988 18.8178 10.5888 18.3933 10.7646C17.9688 10.9404 17.5833 11.1986 17.2592 11.5243L9.43317 19.3503C8.99574 19.7879 8.75 20.3813 8.75 21C8.75 21.6187 8.99574 22.2121 9.43317 22.6497L12.4502 25.6667C12.8944 26.0914 13.4853 26.3285 14.0998 26.3285C14.7144 26.3285 15.3053 26.0914 15.7495 25.6667L17.5998 23.8163V43.1667C17.5998 43.7855 17.8457 44.379 18.2833 44.8166C18.7208 45.2542 19.3143 45.5 19.9332 45.5ZM31.3852 12.8333C31.1476 13.5153 30.7037 14.1064 30.115 14.5247C29.5263 14.943 28.822 15.1678 28.0998 15.1678C27.3777 15.1678 26.6734 14.943 26.0847 14.5247C25.496 14.1064 25.0521 13.5153 24.8145 12.8333H31.3852ZM14.0998 24.017L11.0828 21L18.9088 13.174C19.1275 12.9559 19.4237 12.8334 19.7325 12.8333H22.3855C22.6533 14.152 23.3687 15.3376 24.4105 16.1891C25.4524 17.0407 26.7566 17.5059 28.1022 17.5059C29.4478 17.5059 30.752 17.0407 31.7938 16.1891C32.8357 15.3376 33.5511 14.152 33.8188 12.8333H36.4718C36.7807 12.8334 37.0769 12.9559 37.2955 13.174L45.1168 21L42.0998 24.017L38.2592 20.174C38.096 20.0104 37.8879 19.899 37.6614 19.8538C37.4348 19.8086 37.1999 19.8317 36.9864 19.9202C36.773 20.0087 36.5906 20.1585 36.4625 20.3508C36.3343 20.543 36.2661 20.769 36.2665 21V43.1667H19.9332V21C19.9336 20.769 19.8654 20.543 19.7372 20.3508C19.6091 20.1585 19.4267 20.0087 19.2133 19.9202C18.9998 19.8317 18.7649 19.8086 18.5383 19.8538C18.3117 19.899 18.1037 20.0104 17.9405 20.174L14.0998 24.017Z" fill="#393D46"/>
</svg>
