<svg width="10" height="7" viewBox="0 0 10 7" fill="none" xmlns="http://www.w3.org/2000/svg">
<path d="M5.0321 6.0377C4.89976 6.03846 4.76857 6.0131 4.64605 5.96305C4.52353 5.91301 4.41209 5.83928 4.31813 5.74608L0.295738 1.72369C0.10638 1.53433 0 1.2775 0 1.00971C0 0.741919 0.10638 0.485095 0.295738 0.295737C0.485096 0.10638 0.74192 0 1.00971 0C1.2775 0 1.53433 0.10638 1.72369 0.295737L5.0321 3.61421L8.34052 0.305794C8.53289 0.14105 8.78034 0.0549645 9.03343 0.0647401C9.28651 0.0745156 9.52659 0.179433 9.70568 0.358524C9.88477 0.537615 9.98969 0.777691 9.99946 1.03078C10.0092 1.28386 9.92315 1.53131 9.75841 1.72369L5.73602 5.74608C5.54872 5.93185 5.29591 6.03659 5.0321 6.0377Z" fill="#9F9F9F"/>
</svg>
